<svg xmlns="http://www.w3.org/2000/svg">	<symbol id="arrow-down" viewBox="0 0 100 100"><polygon points="50,77.6 0,27.8 6,22 50,65.9 94,22 100,27.8"></polygon></symbol>	<symbol id="arrow-left" viewBox="0 0 100 100"><polygon points="71.7,0 77.6,6 33.7,50 77.6,94 71.7,100 22,50"></polygon></symbol>	<symbol id="arrow-right" viewBox="0 0 100 100"><polygon points="77.6,50 27.8,100 22,94 65.9,50 22,6 27.8,0"></polygon></symbol>	<symbol id="arrow-up" viewBox="0 0 100 100"><polygon points="100,71.7 94,77.6 50,33.7 6,77.6 0,71.7 50,22"></polygon></symbol>	<symbol id="hist_1" viewBox="0 0 71.5999984741211 98.19999694824219"><path d="M53.5,98.2H18.1c-7.2,0-13-5.8-13-13V43.6c0-7.2,5.8-13,13-13h35.4c7.2,0,13,5.8,13,13v41.6    C66.5,92.4,60.7,98.2,53.5,98.2z M18.1,32.6c-6.1,0-11,4.9-11,11v41.6c0,6.1,4.9,11,11,11h35.4c6.1,0,11-4.9,11-11V43.6    c0-6.1-4.9-11-11-11H18.1z"></path><path d="M65.5,65.4h-1V0h1c3.1,0,5.6,2.5,5.6,5.6l0.5,53.7c0,1.6-0.6,3.2-1.8,4.3S67.1,65.4,65.5,65.4z M66.5,2.1    v61.1c0.7-0.2,1.4-0.5,1.9-1.1c0.8-0.8,1.2-1.8,1.2-2.9L69.1,5.6C69.1,4,68,2.6,66.5,2.1z"></path><path d="M7.1,65.4h-1c-1.6,0-3.2-0.6-4.3-1.8C0.6,62.4,0,60.9,0,59.2L0.5,5.6C0.5,2.5,3,0,6.1,0h1V65.4z M5.1,2.1    C3.6,2.6,2.5,4,2.5,5.6L2,59.3c0,1.1,0.4,2.1,1.2,2.9c0.5,0.5,1.2,0.9,1.9,1.1V2.1z"></path><path d="M34.6,67.1c-4.1,0-7.4-3.3-7.4-7.4s3.3-7.4,7.4-7.4c4.1,0,7.4,3.3,7.4,7.4S38.7,67.1,34.6,67.1z M34.6,53.3    c-3.5,0-6.4,2.9-6.4,6.4s2.9,6.4,6.4,6.4s6.4-2.9,6.4-6.4S38.1,53.3,34.6,53.3z"></path><path d="M60.7,38.5H10c-0.4,0-0.8-0.3-0.8-0.8S9.6,37,10,37h50.7c0.4,0,0.8,0.3,0.8,0.8S61.1,38.5,60.7,38.5z"></path><path d="M60.7,84.4H10c-0.4,0-0.8-0.3-0.8-0.8s0.3-0.8,0.8-0.8h50.7c0.4,0,0.8,0.3,0.8,0.8S61.1,84.4,60.7,84.4z"></path><path d="M27,67.7c-0.1,0-0.3-0.1-0.4-0.2c-6.7-7.3-0.5-15.9-0.4-16c0.2-0.2,0.5-0.3,0.7-0.1c0.2,0.2,0.3,0.5,0.1,0.7     c-0.2,0.3-5.8,8.1,0.4,14.8c0.2,0.2,0.2,0.5,0,0.7C27.2,67.6,27.1,67.7,27,67.7z"></path><path d="M24.9,69.9c-0.1,0-0.3-0.1-0.4-0.2c-8.6-9.3-0.6-20.4-0.6-20.5c0.2-0.2,0.5-0.3,0.7-0.1     c0.2,0.2,0.3,0.5,0.1,0.7c-0.3,0.4-7.6,10.6,0.5,19.2c0.2,0.2,0.2,0.5,0,0.7C25.1,69.9,25,69.9,24.9,69.9z"></path><path d="M22.3,72.2c-0.1,0-0.3-0.1-0.4-0.2C11.4,60.7,21.2,47,21.3,46.9c0.2-0.2,0.5-0.3,0.7-0.1     c0.2,0.2,0.3,0.5,0.1,0.7c-0.4,0.5-9.4,13.1,0.6,23.9c0.2,0.2,0.2,0.5,0,0.7C22.6,72.2,22.4,72.2,22.3,72.2z"></path><path d="M19.8,75.1c-0.1,0-0.3-0.1-0.4-0.2c-13-14-1-30.7-0.8-30.9c0.2-0.2,0.5-0.3,0.7-0.1c0.2,0.2,0.3,0.5,0.1,0.7     c-0.1,0.2-11.6,16.3,0.8,29.6c0.2,0.2,0.2,0.5,0,0.7C20.1,75.1,20,75.1,19.8,75.1z"></path><path d="M42.3,67.7c-0.1,0-0.2,0-0.3-0.1c-0.2-0.2-0.2-0.5,0-0.7c6.2-6.7,0.4-14.7,0.4-14.8     c-0.2-0.2-0.1-0.5,0.1-0.7c0.2-0.2,0.5-0.1,0.7,0.1c0.1,0.1,6.3,8.8-0.4,16C42.5,67.6,42.4,67.7,42.3,67.7z"></path><path d="M44.3,69.9c-0.1,0-0.2,0-0.3-0.1c-0.2-0.2-0.2-0.5,0-0.7c8-8.7,0.8-18.8,0.5-19.2c-0.2-0.2-0.1-0.5,0.1-0.7     c0.2-0.2,0.5-0.1,0.7,0.1c0.1,0.1,8,11.2-0.6,20.5C44.6,69.8,44.5,69.9,44.3,69.9z"></path><path d="M46.9,72.2c-0.1,0-0.2,0-0.3-0.1c-0.2-0.2-0.2-0.5,0-0.7c10-10.8,1-23.4,0.6-23.9c-0.2-0.2-0.1-0.5,0.1-0.7     c0.2-0.2,0.5-0.1,0.7,0.1c0.1,0.1,9.9,13.8-0.7,25.2C47.2,72.2,47.1,72.2,46.9,72.2z"></path><path d="M49.4,75.1c-0.1,0-0.2,0-0.3-0.1c-0.2-0.2-0.2-0.5,0-0.7c12.4-13.4,0.9-29.5,0.8-29.6     c-0.2-0.2-0.1-0.5,0.1-0.7c0.2-0.2,0.5-0.1,0.7,0.1c0.1,0.2,12.1,16.9-0.8,30.9C49.7,75,49.5,75.1,49.4,75.1z"></path><path d="M22.3,92.1c-1.5,0-2.7-1.2-2.7-2.7s1.2-2.7,2.7-2.7S25,88,25,89.5S23.8,92.1,22.3,92.1z M22.3,87.8    c-0.9,0-1.7,0.8-1.7,1.7s0.8,1.7,1.7,1.7s1.7-0.8,1.7-1.7S23.3,87.8,22.3,87.8z"></path><path d="M31.3,92.1c-1.5,0-2.7-1.2-2.7-2.7s1.2-2.7,2.7-2.7c1.5,0,2.7,1.2,2.7,2.7S32.8,92.1,31.3,92.1z M31.3,87.8    c-0.9,0-1.7,0.8-1.7,1.7s0.8,1.7,1.7,1.7c0.9,0,1.7-0.8,1.7-1.7S32.2,87.8,31.3,87.8z"></path><path d="M40.3,92.1c-1.5,0-2.7-1.2-2.7-2.7s1.2-2.7,2.7-2.7c1.5,0,2.7,1.2,2.7,2.7S41.8,92.1,40.3,92.1z M40.3,87.8    c-0.9,0-1.7,0.8-1.7,1.7s0.8,1.7,1.7,1.7c0.9,0,1.7-0.8,1.7-1.7S41.2,87.8,40.3,87.8z"></path><path d="M49.3,92.1c-1.5,0-2.7-1.2-2.7-2.7s1.2-2.7,2.7-2.7c1.5,0,2.7,1.2,2.7,2.7S50.7,92.1,49.3,92.1z M49.3,87.8    c-0.9,0-1.7,0.8-1.7,1.7s0.8,1.7,1.7,1.7c0.9,0,1.7-0.8,1.7-1.7S50.2,87.8,49.3,87.8z"></path></symbol>	<symbol id="hist_2" viewBox="0 0 122.5999984741211 96.30000305175781"><polygon points="122.6,96.3 0,96.3 0,31.5 2,31.5 2,94.3 120.6,94.3 120.6,31.5 122.6,31.5"></polygon><path d="M8.7,22.8l-2-0.4l1.4-6.4c0.2-1.1,1-1.9,2.1-2.2l7.3-2.2c1.1-0.3,2.2,0,3,0.7L25,17l-1.4,1.4L19,13.8    c-0.3-0.3-0.6-0.3-1-0.2l-7.3,2.2c-0.3,0.1-0.6,0.4-0.7,0.7L8.7,22.8z"></path><path d="M117.4,24.6l-0.6-6.5c0-0.4-0.3-0.7-0.6-0.8l-7-3c-0.3-0.1-0.7-0.1-1,0.1l-5.1,4l-1.2-1.6l5.1-4    c0.9-0.7,2-0.8,3-0.4l7,3c1,0.4,1.7,1.4,1.8,2.5l0.6,6.5L117.4,24.6z"></path><path d="M122.6,32.7H99.8v-2h20.8v-3.8c0-0.4-0.3-0.8-0.6-1l-19.6-8.3c-0.7-0.3-1.4-0.4-2.2-0.4h-0.6L89.3,4.1    c-0.7-1.3-2-2.1-3.4-2.1H67.4C66,2,64.7,2.8,64,4l-7.6,13.2H30.2c-0.9,0-1.7,0.1-2.6,0.4L7,24.1c-0.5,0.2-1,0.5-1.3,1.1l-3.1,5.6    h48.4v2H1.3c-0.4,0-0.8-0.2-1-0.6c-0.2-0.3-0.2-0.8,0-1.1L4,24.2c0.5-1,1.4-1.7,2.4-2L27,15.7c1-0.3,2.1-0.5,3.2-0.5h25.1l7-12.2    c1-1.9,3-3,5.1-3h18.5C88,0,90,1.2,91,3.1l7.7,12.2c0.8,0.1,1.6,0.3,2.4,0.6l19.6,8.3c1.1,0.5,1.9,1.6,1.9,2.8V32.7z"></path><path d="M90.4,17.5H61.3c-0.6,0-1-0.4-1-1s0.4-1,1-1h29.1c0.6,0,1,0.4,1,1S91,17.5,90.4,17.5z"></path><path d="M75.4,91.6C55.9,91.6,40,75.7,40,56.2s15.9-35.4,35.4-35.4s35.4,15.9,35.4,35.4S94.8,91.6,75.4,91.6z     M75.4,22.9C57,22.9,42,37.8,42,56.2s15,33.4,33.4,33.4s33.4-15,33.4-33.4S93.7,22.9,75.4,22.9z"></path><path d="M75.4,81.7c-14,0-25.5-11.4-25.5-25.4c0-14,11.4-25.5,25.5-25.5s25.5,11.4,25.5,25.5    C100.8,70.3,89.4,81.7,75.4,81.7z M75.4,32.8c-12.9,0-23.5,10.5-23.5,23.5c0,12.9,10.5,23.4,23.5,23.4s23.5-10.5,23.5-23.4    C98.8,43.3,88.3,32.8,75.4,32.8z"></path><path d="M61.3,64.2c-0.3,0-0.5-0.1-0.7-0.4c-1.2-2.3-1.8-4.9-1.8-7.5c0-7.4,5-14,12.1-15.9c0.4-0.1,0.8,0.1,0.9,0.5    s-0.1,0.8-0.5,0.9c-6.5,1.8-11,7.7-11,14.5c0,2.4,0.6,4.7,1.7,6.9c0.2,0.4,0,0.8-0.3,1C61.5,64.1,61.4,64.2,61.3,64.2z"></path></symbol>	<symbol id="hist_3" viewBox="0 0 68.19999694824219 97.69999694824219"><path d="M61.8,97.7H6.5c-3.6,0-6.5-2.9-6.5-6.5V6.5C0,2.9,2.9,0,6.5,0h55.3c3.6,0,6.5,2.9,6.5,6.5v84.7    C68.2,94.8,65.3,97.7,61.8,97.7z M6.5,2C4,2,2,4,2,6.5v84.7c0,2.5,2,4.5,4.5,4.5h55.3c2.5,0,4.5-2,4.5-4.5V6.5    c0-2.5-2-4.5-4.5-4.5H6.5z"></path><path d="M34.1,77.8c-8.1,0-14.7-6.6-14.7-14.7S26,48.4,34.1,48.4S48.8,55,48.8,63.1S42.2,77.8,34.1,77.8z M34.1,50.4    c-7,0-12.7,5.7-12.7,12.7s5.7,12.7,12.7,12.7c7,0,12.7-5.7,12.7-12.7S41.1,50.4,34.1,50.4z"></path><path d="M34.1,84.9c-12,0-21.9-9.8-21.9-21.9s9.8-21.9,21.9-21.9c12,0,21.9,9.8,21.9,21.9S46.2,84.9,34.1,84.9z     M34.1,42.2c-11.5,0-20.9,9.4-20.9,20.9c0,11.5,9.4,20.9,20.9,20.9S55,74.6,55,63.1C55,51.6,45.6,42.2,34.1,42.2z"></path><path d="M34.1,90.3c-15,0-27.2-12.2-27.2-27.2c0-15,12.2-27.2,27.2-27.2s27.2,12.2,27.2,27.2    C61.3,78.1,49.1,90.3,34.1,90.3z M34.1,37.4C20,37.4,8.4,48.9,8.4,63.1c0,14.2,11.5,25.7,25.7,25.7s25.7-11.5,25.7-25.7    C59.8,48.9,48.3,37.4,34.1,37.4z"></path><path d="M34.1,20c-1.8,0-3.3-1.5-3.3-3.3c0-1.8,1.5-3.3,3.3-3.3s3.3,1.5,3.3,3.3C37.4,18.5,35.9,20,34.1,20z     M34.1,14.5c-1.2,0-2.3,1-2.3,2.3s1,2.3,2.3,2.3c1.2,0,2.3-1,2.3-2.3S35.4,14.5,34.1,14.5z"></path><path d="M34.1,23.5c-3.7,0-6.7-3-6.7-6.7s3-6.7,6.7-6.7s6.7,3,6.7,6.7S37.8,23.5,34.1,23.5z M34.1,11.5    c-2.9,0-5.2,2.3-5.2,5.2s2.3,5.2,5.2,5.2s5.2-2.3,5.2-5.2S37,11.5,34.1,11.5z"></path><path d="M26,10.5c-1,0-1.8-0.8-1.8-1.8S25,6.8,26,6.8s1.8,0.8,1.8,1.8S27,10.5,26,10.5z M26,7.8    c-0.5,0-0.8,0.4-0.8,0.8s0.4,0.8,0.8,0.8c0.5,0,0.8-0.4,0.8-0.8S26.4,7.8,26,7.8z"></path><path d="M26,26.8c-1,0-1.8-0.8-1.8-1.8s0.8-1.8,1.8-1.8s1.8,0.8,1.8,1.8S27,26.8,26,26.8z M26,24.2    c-0.5,0-0.8,0.4-0.8,0.8s0.4,0.8,0.8,0.8c0.5,0,0.8-0.4,0.8-0.8S26.4,24.2,26,24.2z"></path><path d="M42.3,26.8c-1,0-1.8-0.8-1.8-1.8s0.8-1.8,1.8-1.8s1.8,0.8,1.8,1.8S43.3,26.8,42.3,26.8z M42.3,24.2    c-0.5,0-0.8,0.4-0.8,0.8s0.4,0.8,0.8,0.8c0.5,0,0.8-0.4,0.8-0.8S42.8,24.2,42.3,24.2z"></path><path d="M42.3,10.5c-1,0-1.8-0.8-1.8-1.8s0.8-1.8,1.8-1.8s1.8,0.8,1.8,1.8S43.3,10.5,42.3,10.5z M42.3,7.8    c-0.5,0-0.8,0.4-0.8,0.8s0.4,0.8,0.8,0.8c0.5,0,0.8-0.4,0.8-0.8S42.8,7.8,42.3,7.8z"></path></symbol>	<symbol id="hist_4" viewBox="0 0 136.89999389648438 100.80000305175781"><path d="M125.1,73.2h-114V5.1c0-2.8,2.3-5.1,5.1-5.1H120c2.8,0,5.1,2.3,5.1,5.1V73.2z M13.1,71.2h110V5.1    c0-1.7-1.4-3.1-3.1-3.1H16.2c-1.7,0-3.1,1.4-3.1,3.1V71.2z"></path><path d="M118.3,68H17.9V5.3h100.4V68z M19.9,66h96.4V7.3H19.9V66z"></path><path d="M133.5,100.8H3.5c-1.2,0-2.3-0.6-2.9-1.6c-0.6-1-0.8-2.2-0.3-3.3l10.9-24.2l1.8,0.8L2.1,96.8    c-0.2,0.4-0.1,0.9,0.1,1.4c0.3,0.4,0.7,0.7,1.2,0.7h130c0.5,0,1-0.2,1.2-0.7s0.3-0.9,0.1-1.4l-11.6-24.1l1.8-0.9l11.6,24.1    c0.5,1.1,0.4,2.3-0.2,3.3C135.7,100.2,134.7,100.8,133.5,100.8z"></path><rect x="1.2" y="95.9" width="134" height="1"></rect><path d="M81.8,92.7H54c-0.5,0-1-0.3-1.3-0.7c-0.3-0.5-0.3-1-0.1-1.5l1.7-3.4c0.3-0.5,0.8-0.9,1.4-0.9h24.5    c0.6,0,1.1,0.3,1.4,0.9l1.7,3.4c0.2,0.5,0.2,1.1-0.1,1.5C82.9,92.4,82.4,92.7,81.8,92.7z M55.6,87.6l-1.7,3.5l0.1,0.1h27.8    c0,0,0,0,0.1,0l-1.7-3.5L55.6,87.6z"></path><path d="M24,78.4h-6.7c-0.4,0-0.8-0.3-0.8-0.8s0.3-0.8,0.8-0.8H24c0.4,0,0.8,0.3,0.8,0.8S24.4,78.4,24,78.4z"></path><path d="M18.9,83.4h-6.8c-0.4,0-0.8-0.3-0.8-0.8s0.3-0.8,0.8-0.8h6.8c0.4,0,0.8,0.3,0.8,0.8S19.3,83.4,18.9,83.4z"></path><path d="M37,78.4h-6.7c-0.4,0-0.8-0.3-0.8-0.8s0.3-0.8,0.8-0.8H37c0.4,0,0.8,0.3,0.8,0.8S37.4,78.4,37,78.4z"></path><path d="M31.9,83.4h-6.8c-0.4,0-0.8-0.3-0.8-0.8s0.3-0.8,0.8-0.8h6.8c0.4,0,0.8,0.3,0.8,0.8S32.3,83.4,31.9,83.4z"></path><path d="M48.9,78.4h-6.7c-0.4,0-0.8-0.3-0.8-0.8s0.3-0.8,0.8-0.8h6.7c0.4,0,0.8,0.3,0.8,0.8S49.3,78.4,48.9,78.4z"></path><path d="M43.8,83.4H37c-0.4,0-0.8-0.3-0.8-0.8s0.3-0.8,0.8-0.8h6.8c0.4,0,0.8,0.3,0.8,0.8S44.2,83.4,43.8,83.4z"></path><path d="M59.7,78.4H53c-0.4,0-0.8-0.3-0.8-0.8s0.3-0.8,0.8-0.8h6.7c0.4,0,0.8,0.3,0.8,0.8S60.2,78.4,59.7,78.4z"></path><path d="M54.7,83.4h-6.8c-0.4,0-0.8-0.3-0.8-0.8s0.3-0.8,0.8-0.8h6.8c0.4,0,0.8,0.3,0.8,0.8S55.1,83.4,54.7,83.4z"></path><path d="M72.4,78.4h-6.7c-0.4,0-0.8-0.3-0.8-0.8s0.3-0.8,0.8-0.8h6.7c0.4,0,0.8,0.3,0.8,0.8S72.9,78.4,72.4,78.4z"></path><path d="M67.4,83.4h-6.8c-0.4,0-0.8-0.3-0.8-0.8s0.3-0.8,0.8-0.8h6.8c0.4,0,0.8,0.3,0.8,0.8S67.8,83.4,67.4,83.4z"></path><path d="M84.3,78.4h-6.7c-0.4,0-0.8-0.3-0.8-0.8s0.3-0.8,0.8-0.8h6.7c0.4,0,0.8,0.3,0.8,0.8S84.7,78.4,84.3,78.4z"></path><path d="M79.2,83.4h-6.8c-0.4,0-0.8-0.3-0.8-0.8s0.3-0.8,0.8-0.8h6.8c0.4,0,0.8,0.3,0.8,0.8S79.7,83.4,79.2,83.4z"></path><path d="M97.8,78.4h-6.7c-0.4,0-0.8-0.3-0.8-0.8s0.3-0.8,0.8-0.8h6.7c0.4,0,0.8,0.3,0.8,0.8S98.2,78.4,97.8,78.4z"></path><path d="M92.7,83.4h-6.8c-0.4,0-0.8-0.3-0.8-0.8s0.3-0.8,0.8-0.8h6.8c0.4,0,0.8,0.3,0.8,0.8S93.1,83.4,92.7,83.4z"></path><path d="M111.2,78.4h-6.7c-0.4,0-0.8-0.3-0.8-0.8s0.3-0.8,0.8-0.8h6.7c0.4,0,0.8,0.3,0.8,0.8S111.6,78.4,111.2,78.4z"></path><path d="M106.2,83.4h-6.8c-0.4,0-0.8-0.3-0.8-0.8s0.3-0.8,0.8-0.8h6.8c0.4,0,0.8,0.3,0.8,0.8S106.6,83.4,106.2,83.4z"></path><path d="M118,83.4h-6.8c-0.4,0-0.8-0.3-0.8-0.8s0.3-0.8,0.8-0.8h6.8c0.4,0,0.8,0.3,0.8,0.8S118.5,83.4,118,83.4z"></path></symbol>	<symbol id="icon-parser" viewBox="0 0 50 75">	<path fill="red" stroke="blue" d="M25-0.2L25-0.2L25-0.2C5.8-0.2-6.3,20.7,3.3,37.3v0L25,74.8l21.7-37.5v0C56.3,20.7,44.2-0.2,25-0.2z M39,37.3  h-7.3V22.2L25,32.5h-0.2l-6.7-10.3v15.1H11V10.9h7.7L25,21.2l6.3-10.2H39V37.3z"></path></symbol> 	<symbol id="partners_1" viewBox="0 0 94.19999694824219 74.69999694824219"><title></title><path d="M24.6,16.1h-2V8c0-4.4,3.6-8,8-8h32c4.4,0,8,3.6,8,8v8h-2V8c0-3.3-2.7-6-6-6h-32c-3.3,0-6,2.7-6,6V16.1z"></path><path d="M86.8,74.7H7.3c-4,0-7.3-3.3-7.3-7.3v-45c0-4,3.3-7.3,7.3-7.3h79.5c4,0,7.3,3.3,7.3,7.3v45     C94.2,71.4,90.9,74.7,86.8,74.7z M7.3,17C4.4,17,2,19.4,2,22.3v45c0,2.9,2.4,5.3,5.3,5.3h79.5c2.9,0,5.3-2.4,5.3-5.3v-45     c0-2.9-2.4-5.3-5.3-5.3H7.3z"></path><path d="M86.6,47.9h-5.6v-2h5.6c3.1,0,5.6-2.5,5.6-5.6v-18c0-2.9-2.4-5.3-5.3-5.3H7.3C4.4,17,2,19.4,2,22.3v18     c0,3.1,2.5,5.6,5.6,5.6h5.2v2H7.6c-4.2,0-7.6-3.4-7.6-7.6v-18c0-4,3.3-7.3,7.3-7.3h79.5c4,0,7.3,3.3,7.3,7.3v18     C94.2,44.5,90.8,47.9,86.6,47.9z"></path><rect x="22.4" y="45.9" width="49.5" height="2"></rect><path d="M14.4,52.6c-1.3,0-2.4-1.1-2.4-2.4V38.7c0-1.4,1.1-2.5,2.4-2.5h6.6c1.4,0,2.5,1.1,2.5,2.5v11.5     c0,1.4-1.1,2.5-2.5,2.5H14.4C14.5,52.6,14.4,52.6,14.4,52.6z M14.4,38.2c-0.2,0-0.4,0.2-0.4,0.5v11.5c0,0.3,0.2,0.5,0.5,0.5     c0,0,0,0,0,0h6.6c0.2,0,0.5-0.2,0.5-0.5V38.7c0-0.2-0.2-0.5-0.5-0.5H14.4z"></path><path d="M79.8,52.6h-6.6c-1.4,0-2.5-1.1-2.5-2.5V38.7c0-1.4,1.1-2.5,2.5-2.5h6.6c1.4,0,2.5,1.1,2.5,2.5v11.5     C82.2,51.5,81.1,52.6,79.8,52.6z M73.2,38.2c-0.2,0-0.5,0.2-0.5,0.5v11.5c0,0.2,0.2,0.5,0.5,0.5h6.6c0.2,0,0.5-0.2,0.5-0.5V38.7     c0-0.2-0.2-0.5-0.5-0.5H73.2z"></path></symbol>	<symbol id="partners_2" viewBox="0 0 73.30000305175781 76.0999984741211"><title></title><path d="M1.8,72l1-16.7L3.1,55l51-52.6c3.1-3.1,8.2-3.2,11.3-0.2l5.4,5.3c3.2,3.1,3.2,8.2,0.2,11.4l0,0l-51.3,53     L1.8,72z M4.8,56.2L4,69.9l15-0.1l50.7-52.4c2.3-2.4,2.2-6.2-0.1-8.6l-5.4-5.2c-2.4-2.3-6.2-2.2-8.5,0.1L4.8,56.2z"></path><path d="M18.5,35.1L2.4,19.5c-3.2-3.1-3.2-8.2-0.2-11.4l5.2-5.4c3.1-3.2,8.2-3.3,11.4-0.2L35,18.1l-1.4,1.4L17.5,3.9     c-2.4-2.3-6.3-2.3-8.6,0.1L3.7,9.5c-2.3,2.4-2.3,6.2,0.1,8.6l16.1,15.6L18.5,35.1z"></path><path d="M60.8,76.1L39.7,55.7l1.4-1.4l19.6,19.1l8.4-8.6c1.4-1.5,2.2-3.4,2.2-5.4c0-2-0.9-3.9-2.3-5.3L54.9,40.3     l1.4-1.4l14.1,13.6c1.8,1.8,2.9,4.2,2.9,6.7c0,2.6-0.9,5-2.7,6.8L60.8,76.1z"></path><polygon points="19.4,69.9 18.5,62 11.4,62.9 11.4,55.6 4.5,56.1 4.4,54.1 13.4,53.5 13.4,60.6 20.2,59.8 21.4,69.7"></polygon><polygon points="7.2,70.9 3.1,70.7 3.7,66.6"></polygon><path d="M9.4,72L2,71.7l1-7.5L9.4,72z M4.2,69.8l0.8,0L4.3,69L4.2,69.8z"></path><rect x="2.2" y="15.5" transform="matrix(0.7071 -0.7071 0.7071 0.7071 -10.0548 8.6644)" width="6.5" height="2"></rect><rect x="7.9" y="20.4" transform="matrix(0.7066 -0.7076 0.7076 0.7066 -11.3922 15.2726)" width="9.6" height="2"></rect><rect x="15.1" y="28.1" transform="matrix(0.7071 -0.7071 0.7071 0.7071 -15.2643 21.3679)" width="6.1" height="2"></rect><rect x="42.1" y="54" transform="matrix(0.7071 -0.7071 0.7071 0.7071 -25.7733 47.6868)" width="5.2" height="2"></rect><rect x="47.5" y="58.7" transform="matrix(0.7076 -0.7066 0.7066 0.7076 -26.8986 54.4662)" width="9.8" height="2"></rect><rect x="54.4" y="66.4" transform="matrix(0.7081 -0.7061 0.7061 0.7081 -30.8521 60.1402)" width="5.7" height="2"></rect></symbol>	<symbol id="partners_3" viewBox="0 0 81.80000305175781 82.4000015258789"><title></title><path d="M31.8,82.4C14.3,82.4,0,68.1,0,50.6C0,33,14.3,18.7,31.8,18.7S63.6,33,63.6,50.6     C63.6,68.1,49.4,82.4,31.8,82.4z M31.8,20.7C15.4,20.7,2,34.1,2,50.6C2,67,15.4,80.4,31.8,80.4S61.6,67,61.6,50.6     C61.6,34.1,48.3,20.7,31.8,20.7z"></path><polygon points="47.9,23.9 46,23.5 47.4,16.4 29.2,12.7 27.6,20.4 25.6,20 27.6,10.3 49.8,14.8"></polygon><path d="M28.4,75.4C5.8,71.5,7.8,47.2,7.8,47l2,0.2C9.7,48.1,8,69.9,28.7,73.5L28.4,75.4z"></path><path d="M63.9,19.1C56.6,12.6,53.6,7.2,53.2,6.4C52.6,5.7,47.4-0.4,41.9,3c-3.5,2-5.4,5.9-4.9,9.9l-2,0.2     c-0.6-4.8,1.7-9.4,5.8-11.8c5.9-3.5,11.7,1,13.9,4l0.1,0.2c0,0.1,2.9,5.6,10.3,12.2L63.9,19.1z"></path><path d="M69.7,13.3c-0.6,0-1-0.4-1-1V5.2c0-0.6,0.4-1,1-1s1,0.4,1,1v7.1C70.7,12.8,70.2,13.3,69.7,13.3z"></path><path d="M73,16c-0.3,0-0.5-0.1-0.7-0.3c-0.4-0.4-0.4-1,0-1.4l5-5c0.4-0.4,1-0.4,1.4,0s0.4,1,0,1.4l-5,5     C73.5,15.9,73.2,16,73,16z"></path><path d="M80.8,19.5h-7.1c-0.6,0-1-0.4-1-1s0.4-1,1-1h7.1c0.6,0,1,0.4,1,1S81.3,19.5,80.8,19.5z"></path><path d="M77.3,28.4c-0.3,0-0.6-0.1-0.8-0.3l-4.6-5.4c-0.4-0.4-0.3-1.1,0.1-1.4c0.4-0.4,1.1-0.3,1.4,0.1l4.6,5.4     c0.4,0.4,0.3,1.1-0.1,1.4C77.8,28.3,77.6,28.4,77.3,28.4z"></path><path d="M68.8,32.1c-0.6,0-1-0.4-1-1V24c0-0.6,0.4-1,1-1s1,0.4,1,1v7.1C69.8,31.7,69.3,32.1,68.8,32.1z"></path></symbol>	<symbol id="partners_4" viewBox="0 0 141.1999969482422 64.19999694824219"><path d="M129.1,51.8c0,0-0.1,0-0.1,0c-0.8-0.1-1.5-0.8-1.4-1.6c0.1-1,0.1-1.9,0.1-2.9C127.7,22.9,106.9,3,81.2,3    C60.7,3,42.8,15.6,36.8,34.3c-0.3,0.8-1.1,1.2-1.9,1c-0.8-0.3-1.2-1.1-1-1.9C40.4,13.4,59.4,0,81.2,0c27.3,0,49.5,21.2,49.5,47.3    c0,1,0,2.1-0.1,3.1C130.5,51.2,129.9,51.8,129.1,51.8z"></path><path d="M139.7,51.8H85.9c-0.8,0-1.5-0.7-1.5-1.5s0.7-1.5,1.5-1.5h53.8c0.8,0,1.5,0.7,1.5,1.5S140.5,51.8,139.7,51.8z"></path><path d="M120,40.5c-0.4,0-0.8-0.3-1-0.7C110.3,9.5,80.3,9.9,80,9.9c-0.6,0-1-0.4-1-1c0-0.6,0.4-1,1-1    c0.3,0,31.8-0.5,41,31.3c0.2,0.5-0.2,1.1-0.7,1.2C120.2,40.5,120.1,40.5,120,40.5z"></path><path d="M74.5,55.9H11.8c-0.7,0-1.4-0.3-1.8-0.9L0.4,42c-0.5-0.7-0.6-1.5-0.2-2.3s1.1-1.2,2-1.2h81.9    c0.8,0,1.6,0.5,2,1.2c0.4,0.7,0.3,1.6-0.2,2.3l-9.6,13C75.9,55.6,75.2,55.9,74.5,55.9z M2.2,40.5c-0.1,0-0.1,0-0.2,0.1    c0,0.1,0,0.1,0,0.2l9.6,13c0,0,0.1,0.1,0.2,0.1h62.8c0.1,0,0.1,0,0.2-0.1l9.6-13c0-0.1,0.1-0.1,0-0.2s-0.1-0.1-0.2-0.1H2.2z"></path><path d="M70.4,64.2H16c-1.3,0-2.6-0.8-3-2.1l-3.2-8.6h67.6l-3.9,8.8C72.9,63.5,71.7,64.2,70.4,64.2z M12.6,55.5    l2.2,5.9c0.2,0.5,0.6,0.8,1.1,0.8h54.5c0.5,0,0.9-0.3,1.1-0.7l2.7-6H12.6z"></path></symbol>	<symbol id="social_fb" viewBox="0 0 288.861 288.861"> <path d="M167.172,288.861h-62.16V159.347H70.769v-59.48h34.242v-33.4C105.011,35.804,124.195,0,178.284,0
  c19.068,0,33.066,1.787,33.651,1.864l5.739,0.746l-1.382,55.663l-6.324-0.058c-0.013,0-14.223-0.135-29.724-0.135
  c-11.536,0-13.066,2.847-13.066,14.171v27.629h50.913l-2.821,59.48h-48.086v129.501H167.172z M117.858,276.007h36.453V146.5h48.677
  l1.607-33.779h-50.284V72.238c0-13.368,3.078-27.025,25.919-27.025c9.178,0,17.899,0.045,23.509,0.09l0.778-31.292
  c-5.675-0.508-15.116-1.157-26.247-1.157c-44.544,0-60.419,27.693-60.419,53.613v46.254H83.61V146.5h34.242v129.507H117.858z"> </path></symbol><symbol id="social_1" viewBox="0 0 485.8999938964844 490.20001220703125"><path d="M418.8,61.8C374.1,20.6,318.5,0,252.1,0C182.3,0,122.8,23.4,73.7,70.3S0,175.5,0,245.3c0,66.9,23.4,124.4,70.1,172.6   c46.9,48.2,109.9,72.3,189.2,72.3c47.8,0,94.7-9.8,140.7-29.5c15-6.4,22.3-23.6,16.2-38.7l0,0c-6.3-15.6-24.1-22.8-39.6-16.2   c-40,17.2-79.2,25.8-117.4,25.8c-60.8,0-107.9-18.5-141.3-55.6c-33.3-37-50-80.5-50-130.4c0-54.2,17.9-99.4,53.6-135.7   C157.1,73.7,201,55.5,253,55.5c47.9,0,88.4,14.9,121.4,44.7s49.5,67.3,49.5,112.5c0,30.9-7.6,56.7-22.7,77.2   c-15.1,20.6-30.8,30.8-47.1,30.8c-8.8,0-13.2-4.7-13.2-14.2c0-7.7,0.6-16.7,1.7-27.1l18.6-152.1h-64l-4.1,14.9   c-16.3-13.3-34.2-20-53.6-20c-30.8,0-57.2,12.3-79.1,36.8c-22,24.5-32.9,56.1-32.9,94.7c0,37.7,9.7,68.2,29.2,91.3   c19.5,23.2,42.9,34.7,70.3,34.7c24.5,0,45.4-10.3,62.8-30.8c13.1,19.7,32.4,29.5,57.9,29.5c37.5,0,69.9-16.3,97.2-49   c27.3-32.6,41-72,41-118.1C485.9,152.9,463.6,103,418.8,61.8z M271.4,291.9c-11.3,15.2-24.8,22.9-40.5,22.9   c-10.7,0-19.3-5.6-25.8-16.8c-6.6-11.2-9.9-25.1-9.9-41.8c0-20.6,4.6-37.2,13.8-49.8s20.6-19,34.2-19c11.8,0,22.3,4.7,31.5,14.2   c9.2,9.5,13.8,22.1,13.8,37.9C288.4,259.2,282.7,276.6,271.4,291.9z"></path></symbol>	<symbol id="social_2" viewBox="0 0 430.1000061035156 411"><path d="M430.1,252v159h-92.2V262.6c0-37.3-13.3-62.7-46.7-62.7c-25.5,0-40.6,17.1-47.3,33.7   c-2.4,5.9-3.1,14.2-3.1,22.5V411h-92.2c0,0,1.2-251.3,0-277.3h92.2V173c-0.2,0.3-0.4,0.6-0.6,0.9h0.6V173   c12.3-18.9,34.1-45.8,83.1-45.8C384.6,127.2,430.1,166.8,430.1,252z M52.2,0C20.6,0,0,20.7,0,47.9c0,26.6,20,47.9,51,47.9h0.6   c32.2,0,52.2-21.3,52.2-47.9C103.1,20.7,83.7,0,52.2,0z M5.5,411h92.2V133.7H5.5V411z"></path></symbol>	<symbol id="social_3" viewBox="0 0 385.5 338"><path d="M385.3,201.3c0-4.5-3.6-8.2-8.1-8.2s-8.2,3.6-8.2,8.1c0,0.2,0,0.3,0,0.5c0.6,23.5-0.4,46.9-2.8,70.3    c-36.4,28.3-87.5,45-122.9,49.5l-18-48.2c24.9-3.9,62.9-14.8,93.7-45.1c3.2-3.1,3.3-8.2,0.1-11.4c-2.1-2.2-5.2-3-8.1-2.1    c-3.6,1.1-8.5,3-13.6,5c-5.8,2.3-12.4,4.8-16,5.7c-29,7-58.8,10.5-88.7,10.6h-0.1c-29.9-0.1-59.6-3.6-88.7-10.6    c-3.7-0.9-10.3-3.4-16-5.7c-4.9-1.9-9.6-3.8-13.2-4.9c-3.3-1.1-7,0-9.2,2.7c-2.5,3.2-2.2,7.8,0.7,10.7    c30.9,30.4,68.8,41.4,93.7,45.3l-18,48c-35.4-4.5-86.5-21.2-122.9-49.5C11.5,204.1,18.7,95.4,43.7,32    c22.9-10.5,56.7-13.4,88.3-14.7L81.5,40.7c-4.1,1.9-5.8,6.6-4,10.7c1.7,3.7,5.8,5.5,9.6,4.4c34.3-10,69.8-15.1,105.5-15.3    c35.7,0.1,71.3,5.2,105.6,15.3c4.3,1.3,8.8-1.2,10-5.5c1.1-3.9-0.7-8-4.4-9.6l-50.5-23.4c31.6,1.3,65.4,4.2,88.3,14.6    c13.7,34.7,22,82.9,25.5,130.6c0.3,4.2,3.9,7.5,8.1,7.5l0,0c4.5,0,8.1-3.7,8.1-8.2c0-0.2,0-0.4,0-0.6    c-3.7-50.5-12.8-101.5-28-138.4c-0.7-1.8-2.1-3.3-3.9-4.1C319.5,2.7,269.2,1.4,228.8,0.4c-4.9-0.1-9.7-0.2-14.3-0.4    c-4.5-0.1-8.2,3.3-8.3,7.8c-0.1,3.2,1.7,6.2,4.7,7.6l24.6,11.4c-28.4-3.2-57.1-3.2-85.5,0l24.6-11.4c4.1-1.9,5.8-6.7,3.9-10.7    c-1.4-3-4.4-4.8-7.6-4.7c-4.6,0.2-9.3,0.3-14.3,0.4c-40.4,1-90.7,2.3-122.9,18.4c-1.7,0.9-3.1,2.3-3.9,4.1    C2.2,90.3-5.3,205,3.5,277.1c0.3,2.1,1.3,4,3,5.3C48,315.9,106.8,334.5,146.7,338c0.2,0,0.5,0,0.7,0c3.4,0,6.4-2.1,7.6-5.3    l23.8-63.4c1.2-3.2,0.3-6.8-2.3-9c-1.3-1.1-3-1.8-4.7-1.9c-17.6-1.8-34.9-6.3-51.2-13.3c23.8,4.4,47.9,6.7,72.1,6.7h0.1    c24.1,0,48.1-2.2,71.8-6.6c-16.2,6.9-33.3,11.3-50.9,13.1c-1.7,0.1-3.3,0.8-4.7,1.9c-2.6,2.2-3.5,5.8-2.3,9l23.8,63.6    c1.2,3.2,4.2,5.3,7.6,5.3c0.2,0,0.5,0,0.7,0c39.9-3.6,98.7-22.2,140.3-55.6c1.7-1.3,2.7-3.2,3-5.3    C384.7,255,385.8,228.8,385.3,201.3z"></path><path d="M117.3,93.4c-28.3,0-51.2,22.9-51.2,51.2s22.9,51.2,51.2,51.2s51.2-22.9,51.2-51.2l0,0C168.4,116.3,145.5,93.4,117.3,93.4    z M117.3,179.6c-19.3,0-35-15.7-35-35s15.7-35,35-35s35,15.7,35,35C152.2,163.9,136.6,179.6,117.3,179.6z"></path><path d="M268.2,93.4c-28.3,0-51.2,22.9-51.2,51.2s22.9,51.2,51.2,51.2s51.2-22.9,51.2-51.2C319.3,116.3,296.4,93.4,268.2,93.4z     M268.2,179.6c-19.3,0-35-15.7-35-35s15.7-35,35-35s35,15.7,35,35C303.1,163.9,287.5,179.6,268.2,179.6z"></path></symbol>	<symbol id="social_4" viewBox="0 0 512 450.1000061035156"><path d="M512,87.5c-0.1-3-1.9-5.7-4.6-7L348.2,0.9c-3.8-1.9-8.4-0.6-10.7,2.9L229.9,169.3l-55.4-85.9c-0.8-1.2-1.9-2.3-3.3-2.9    L12,0.9C6.6-1.8,0,2.2,0,8.3v79.6c0,4.6,3.7,8.3,8.3,8.3c4.6,0,8.3-3.7,8.3-8.3V21.7L159.2,93v335.3L16.6,357V123.3    c0-4.6-3.7-8.3-8.3-8.3c-4.6,0-8.3,3.7-8.3,8.3v238.9c0,3.1,1.8,6,4.6,7.4l159.2,79.6c5.4,2.7,12-1.4,12-7.4V287.1L500,449.2    c5.4,2.7,12-1.4,12-7.4V87.9C512,87.8,512,87.7,512,87.5z M175.8,268.6V116.1l145.2,225.1L175.8,268.6z M495.4,428.4l-139.3-69.7    l108.6-187c2.3-4,1-9-3-11.3c-4-2.3-9-1-11.3,3L344.1,346.3L239.8,184.6L347.4,19l144.7,72.4l-26.4,45.4c-2.3,4-1,9,3,11.3    c4,2.3,9,1,11.3-3l15.4-26.4V428.4z"></path></symbol>	<symbol id="social_5" viewBox="0 0 612 500.3999938964844"><path d="M606,58.4c-4.9-3.4-11.4-3.2-16.1,0.3c-3.3,2.5-8.2,4.6-13.9,6.5c18.8-23.3,19.1-38.9,18.8-42.8c-0.4-5-3.4-9.4-7.9-11.5     c-4.5-2.1-9.9-1.7-14,1.3c-25.7,18.4-51.3,22.4-66.3,22.9C482.1,12.4,450.6,0,417.1,0c-72.5,0-131.5,59-131.5,131.5     c0,5.2,0.3,10.5,0.9,15.7c-121-3-219.1-117-220.1-118.2c-2.9-3.4-7.3-5.3-11.8-4.9c-4.5,0.4-8.5,2.9-10.8,6.8     c-30.8,52.6-18.2,102.5,2.9,137.4c-3.9-2.1-8.7-2.2-12.7-0.2c-4.6,2.3-7.6,7-7.7,12.2c-0.9,55.3,24.4,88.4,49.8,107.7     c-1.9,0.8-3.6,1.9-5,3.5c-3.3,3.6-4.5,8.8-3,13.5c17.7,57.1,59.3,78.5,88.5,86.6c-33.5,23.6-74.9,29.1-106.4,29.1     c-20.1,0-33.9-2.4-34.1-2.4c-6.3-1.1-12.6,2.3-15.1,8.1c-2.6,5.9-0.7,12.7,4.4,16.6c63.1,47.5,139.4,57.4,192.3,57.4     c41.8,0,70.8-6.1,72.3-6.4C541.4,430.6,551.7,187.4,551.2,143c50.9-46.7,59-65,60.2-69.5C613.1,67.8,610.8,61.7,606,58.4z      M527.9,126.8c-3.1,2.9-4.8,7-4.5,11.2c0.2,2.6,15,264.8-259.4,328.9c-0.3,0.1-27.6,5.8-66.2,5.8c-36,0-83.7-4.9-129.1-24.9     c41.6-2.7,92.7-15.4,129.4-56.1c3.7-4.1,4.6-9.9,2.3-14.9c-2.2-5-7.2-8.2-12.7-8.2c-2.6,0-57.2-0.7-84.5-51.4     c12.6,0.4,24.1-1.5,32.6-5.3c5.4-2.5,8.7-8.2,8-14.1c-0.6-5.9-5-10.8-10.9-12.1c-3-0.6-65.8-15-77.1-81.2     c9.8,3.8,21.8,6.4,33.4,4.7c5.4-0.8,9.8-4.7,11.3-9.9c1.5-5.2-0.2-10.9-4.3-14.4c-2.8-2.4-62.7-54.4-36.7-122.6     C94.4,97.6,189.4,181,304,174.6c4.1-0.2,8-2.3,10.4-5.7c2.4-3.3,3.3-7.6,2.2-11.6c-2.1-8.4-3.2-17.1-3.2-25.8     c0-57.2,46.5-103.7,103.7-103.7c28,0,54.3,11,74,31c2.6,2.6,6,4.1,9.7,4.1l2.1,0c10.2,0,26.2-1.2,44.5-7.1     c-5.9,6.2-13.5,13.2-23.4,20.8c-4.9,3.8-6.7,10.3-4.5,16c2.2,5.7,8,9.3,14,8.8c2.2-0.2,12.1-1,24.3-3.2     C550.2,106,540.4,115.5,527.9,126.8z"></path></symbol>	<symbol id="social_6" viewBox="0 0 511.1000061035156 392.5"><path d="M505,86.9c0-1.7-5.1-39.3-21.3-57.2C464.1,8.4,442.7,5.8,431.6,5h-3.4c-69.1-5.1-172.4-6-174.1-6     c-0.9,0-105,0.9-173.2,7.7h-2.6c-11.9,0.9-33.3,3.4-52.1,24.7C9.2,49.3,4.1,87.7,4.1,89.5c0,0-5.1,43.5-5.1,87v40.1     c0,42.7,5.1,86.2,5.1,87c0,1.7,5.1,39.3,21.3,57.2c17.9,20.5,39.3,23,52.9,24.7c2.6,0,4.3,0,6.8,0.9c39.3,3.4,163.8,5.1,169,5.1     c0.9,0,105,0,174.1-7.7h2.6c11.9-0.9,33.3-3.4,52.1-24.7c17.1-17.9,22.2-56.3,22.2-58c0,0,5.1-43.5,5.1-87v-40.1     C510.1,131.3,505,87.7,505,86.9z M493.1,215.7c0,42.7-5.1,85.3-5.1,85.3c-1.7,9.4-6.8,36.7-17.9,48.6     c-14.5,17.1-31.6,18.8-41,19.6h-2.6c-68.3,5.1-171.5,5.1-172.4,5.1s-128.9-1.7-166.4-6c-2.6,0-5.1-0.9-7.7-0.9     c-11.9-0.9-29-3.4-42.7-18.8c-10.2-11.1-16.2-38.4-17.1-47.8c0-0.9-5.1-43.5-5.1-85.3v-40.1c0-42.7,5.1-85.3,5.1-85.3     c0.9-9.4,6.8-36.7,17.1-48.6C52.8,24.6,69,22.9,79.2,22h2.6c68.3-5.1,171.5-6,172.4-6s104.1,0.9,172.4,6h3.4     c9.4,0.9,26.5,2.6,41,19.6c10.2,11.9,15.4,39.3,17.1,48.6c0.9,1.7,5.1,44.4,5.1,85.3L493.1,215.7L493.1,215.7z"></path><path d="M360.8,196.1l-162.1-94.7c-2.6-1.7-6-1.7-8.5,0s-4.3,4.3-4.3,7.7v185.2c0,3.4,1.7,6,4.3,7.7c1.7,0.9,2.6,0.9,4.3,0.9     s2.6,0,4.3-0.9l162.1-90.5c2.6-1.7,4.3-4.3,4.3-7.7S363.4,197.8,360.8,196.1z M202.9,279.7V123.6l136.5,80.2L202.9,279.7z"></path></symbol>	<symbol id="techno_1" viewBox="0 0 234 189.6999969482422"><path d="M224.9,189.7H9.2c-5.1,0-9.2-4.1-9.2-9.2V9.2C0,4.1,4.1,0,9.2,0h215.7c5.1,0,9.2,4.1,9.2,9.2v171.4    C234,185.6,229.9,189.7,224.9,189.7z M9.2,3C5.8,3,3,5.8,3,9.2v171.4c0,3.4,2.8,6.2,6.2,6.2h215.7c3.4,0,6.2-2.8,6.2-6.2V9.2    c0-3.4-2.8-6.2-6.2-6.2H9.2z"></path><rect x="1.5" y="22" width="231" height="3"></rect><rect x="52.6" y="11.5" width="162.1" height="3"></rect><path d="M46,93.3c-0.1,0-0.3,0-0.4,0l-11.8-2c-1.3-0.2-2.2-1.5-2-2.8l0.4-2.2c-1.9-1.2-3.7-2.7-5.2-4.4l-1.8,0.6    c-0.7,0.2-1.3,0.2-1.9-0.1c-0.6-0.3-1-0.8-1.2-1.4l0-0.1l-3.7-11.3c-0.4-1.3,0.3-2.6,1.5-3l1.7-0.6c0.1-1.8,0.4-3.5,0.9-5.2    l-1.4-1.1c-0.5-0.4-0.8-1-0.9-1.6s0.1-1.3,0.5-1.8l7.3-9.5c0.8-1,2.3-1.2,3.4-0.5l1.6,1.2c2-1.1,4.2-1.9,6.4-2.3l0.4-2.5    c0.2-1.3,1.5-2.2,2.8-2l11.8,2c1.3,0.2,2.2,1.5,2,2.8l-0.4,2.6c1.9,1.1,3.5,2.5,5,4.1l2.1-0.7c1.3-0.4,2.6,0.3,3,1.5l0,0.1    l3.7,11.3c0.4,1.2-0.3,2.6-1.5,3l-0.1,0l-1.5,0.5c-0.1,0.8-0.2,1.6-0.4,2.3l-0.1,0.7c-0.1,0.8-0.3,1.5-0.5,2.3l1.4,1    c1.1,0.8,1.3,2.3,0.5,3.4l-7.3,9.5c-0.4,0.5-1,0.8-1.6,0.9c-0.6,0.1-1.3-0.1-1.8-0.5l-1.1-0.8c-2.2,1.3-4.5,2.2-7,2.8l-0.3,1.7    c-0.1,0.6-0.5,1.2-1,1.6C47,93.2,46.5,93.3,46,93.3z M34.9,88.4l10.6,1.8l0.3-1.5c0.2-1,1-1.9,2-2.1c2.3-0.5,4.5-1.4,6.6-2.6    c0.9-0.5,2-0.5,2.9,0.1l0.9,0.7l6.6-8.5l-1.1-0.9c-0.8-0.6-1.2-1.8-0.9-2.8c0.2-0.7,0.4-1.5,0.5-2.2l0.1-0.7    c0.1-0.8,0.3-1.6,0.3-2.3c0-1,0.7-1.9,1.7-2.3l1.3-0.4l-3.4-10.3l-1.8,0.6c-1,0.3-2,0-2.7-0.8c-1.5-1.7-3.3-3.1-5.3-4.1l-1-0.5    l0.7-4.1l-10.6-1.8L42,48l-1.1,0.2c-2.4,0.3-4.6,1.1-6.7,2.3c-0.8,0.5-2,0.4-2.8-0.2l-1.3-1l-6.6,8.5l1.2,0.9    c0.9,0.7,1.2,1.8,0.9,2.8c-0.5,1.6-0.8,3.3-0.8,5c0,1-0.7,2-1.7,2.3l-1.4,0.5l3.3,10.2l1.5-0.5c1-0.4,2.2-0.1,2.8,0.8    c1.5,1.8,3.4,3.3,5.4,4.5l0.9,0.5L34.9,88.4z M48.4,89.7C48.4,89.7,48.4,89.7,48.4,89.7C48.4,89.7,48.4,89.7,48.4,89.7z M56,86.7    C56,86.7,56,86.7,56,86.7C56,86.7,56,86.7,56,86.7z M57.8,85.4C57.8,85.4,57.8,85.4,57.8,85.4L57.8,85.4z M26.9,81.6    C26.9,81.6,26.9,81.6,26.9,81.6C26.9,81.6,26.9,81.6,26.9,81.6z M65.6,73.6C65.6,73.6,65.5,73.6,65.6,73.6    C65.5,73.6,65.6,73.6,65.6,73.6z M66.6,67.7C66.6,67.8,66.6,67.8,66.6,67.7C66.6,67.8,66.6,67.8,66.6,67.7z M21.7,66.4    C21.7,66.4,21.7,66.4,21.7,66.4C21.7,66.4,21.7,66.4,21.7,66.4z M66.8,65.5C66.8,65.5,66.8,65.5,66.8,65.5L66.8,65.5z M22.7,60.6    C22.7,60.6,22.7,60.6,22.7,60.6C22.7,60.6,22.7,60.6,22.7,60.6z M63.8,54.5L63.8,54.5C63.8,54.5,63.8,54.5,63.8,54.5z M61,52.5    C61,52.5,61,52.5,61,52.5C61,52.5,61,52.5,61,52.5z M30.4,48.7L30.4,48.7C30.4,48.7,30.4,48.7,30.4,48.7z M32.7,47.8    C32.7,47.8,32.7,47.8,32.7,47.8C32.7,47.8,32.7,47.8,32.7,47.8z"></path><path d="M44.1,75.9c-0.5,0-1,0-1.5-0.1c-2.3-0.4-4.4-1.7-5.7-3.6c-1.4-1.9-1.9-4.3-1.5-6.6c0.4-2.3,1.7-4.4,3.6-5.7    c1.9-1.4,4.3-1.9,6.6-1.5c2.3,0.4,4.4,1.7,5.7,3.6c1.4,1.9,1.9,4.3,1.5,6.6C52.1,72.9,48.3,75.9,44.1,75.9z M44.1,60.2    c-1.4,0-2.8,0.4-3.9,1.3c-1.5,1.1-2.5,2.6-2.8,4.4c-0.3,1.8,0.1,3.6,1.2,5.1c1.1,1.5,2.6,2.5,4.4,2.8c3.7,0.6,7.3-1.9,7.9-5.6    c0.3-1.8-0.1-3.6-1.2-5.1s-2.6-2.5-4.4-2.8C44.8,60.2,44.4,60.2,44.1,60.2z"></path><path d="M96.1,143.1c-1.1,0-2.2-0.7-2.6-1.9l-0.7-2.1c-3.5-0.2-7-1-10.2-2.3l-1.9,1.9c-0.5,0.5-1.2,0.8-1.9,0.8    c-0.7,0-1.4-0.3-1.9-0.8l-11.4-11.1c-0.5-0.5-0.8-1.2-0.8-1.9c0-0.7,0.3-1.4,0.8-1.9l2.3-2.4c-1.3-2.9-2.2-6-2.5-9.2l-2.8-0.7    c-1.4-0.4-2.3-1.9-1.9-3.3l0-0.1h0l0,0L65,93c0.4-1.4,1.9-2.3,3.4-1.9l2.6,0.7c1.5-2,3.3-3.8,5.2-5.4l-0.9-2.6    c-0.5-1.4,0.3-3,1.7-3.4l15.1-4.9c1.4-0.5,2.9,0.3,3.4,1.7l0.9,2.8c3.2,0.3,6.3,1.1,9.3,2.4l2.5-2.7c1.1-1.1,2.8-1.1,3.9-0.1    l11.4,11.1c0.5,0.5,0.8,1.2,0.8,1.9s-0.3,1.4-0.8,1.9l-2.6,2.7c1.3,2.7,2.2,5.7,2.6,8.7l3.1,0.9c0.7,0.2,1.3,0.7,1.6,1.3    c0.3,0.6,0.4,1.3,0.3,2l0,0.1l-4.4,15.2c-0.4,1.4-1.9,2.2-3.3,1.9l-0.1,0c0,0,0,0,0,0l-2.4-0.7c-0.7,0.9-1.5,1.7-2.3,2.5l-0.6,0.6    c-0.8,0.8-1.6,1.6-2.5,2.3l0.8,2.5c0.5,1.4-0.3,3-1.7,3.4l-0.1,0l-15,4.9C96.6,143,96.3,143.1,96.1,143.1z M82.6,133.8    c0.4,0,0.8,0.1,1.1,0.2c3,1.2,6.1,1.9,9.3,2.1c1.2,0.1,2.2,0.8,2.6,2l0.6,1.9l14.6-4.7l-0.8-2.3c-0.4-1.1,0-2.4,0.9-3.2    c0.8-0.6,1.6-1.3,2.3-2.1l0.6-0.6c0.7-0.8,1.5-1.5,2.1-2.3c0.7-0.9,1.9-1.3,3.1-1l2.2,0.6l4.3-14.7l-2.9-0.8    c-1.1-0.3-1.9-1.3-2-2.4c-0.4-3-1.3-6-2.8-8.7l-0.5-1l3.9-4.1l-11-10.7l-3.8,4.1l-1-0.5c-2.9-1.4-6-2.3-9.3-2.6    c-1.1-0.1-2.1-0.8-2.5-1.9l-0.8-2.6l-14.6,4.7l0.8,2.4c0.4,1.2,0,2.4-1,3.2c-1.8,1.4-3.4,3.1-4.8,4.9c-0.7,1-1.9,1.4-3.1,1.1    l-2.4-0.7l-4.3,14.7l2.5,0.6c1.2,0.3,2,1.3,2.1,2.5c0.3,3.2,1.2,6.3,2.7,9.2l0.5,1l-3.5,3.7l11,10.7l1.7-1.8    C81,134.1,81.8,133.8,82.6,133.8z M92.9,139.1C92.9,139.1,92.9,139.1,92.9,139.1C92.9,139.1,92.9,139.1,92.9,139.1z M82.5,136.8    C82.5,136.8,82.5,136.8,82.5,136.8C82.5,136.8,82.5,136.8,82.5,136.8z M112.9,132.1C112.9,132.1,112.9,132.1,112.9,132.1    C112.9,132.1,112.9,132.1,112.9,132.1z M118.4,126.6C118.4,126.6,118.4,126.6,118.4,126.6C118.4,126.6,118.4,126.6,118.4,126.6z     M121.2,124.7C121.2,124.7,121.2,124.7,121.2,124.7L121.2,124.7z M65.2,112.2C65.2,112.2,65.2,112.2,65.2,112.2    C65.2,112.2,65.2,112.2,65.2,112.2z M125.8,109.7C125.8,109.7,125.8,109.7,125.8,109.7L125.8,109.7z M123.6,106    C123.6,106,123.6,106,123.6,106C123.6,106,123.6,106,123.6,106z M70.9,91.9C70.9,91.9,70.9,91.9,70.9,91.9    C70.9,91.9,70.9,91.9,70.9,91.9z M76.2,86.4C76.2,86.4,76.2,86.4,76.2,86.4C76.2,86.4,76.2,86.4,76.2,86.4z M96.4,80    C96.4,80,96.4,80,96.4,80C96.4,80,96.4,80,96.4,80z"></path><path d="M94.5,120.7c-3,0-5.8-1.1-8-3.2c-2.2-2.1-3.4-5-3.5-8s1.1-5.9,3.2-8.1c4.4-4.5,11.7-4.6,16.2-0.3    c2.2,2.1,3.4,5,3.5,8s-1.1,5.9-3.2,8.1c-2.1,2.2-5,3.4-8,3.5C94.6,120.7,94.6,120.7,94.5,120.7z M94.5,99.8c-2.5,0-4.9,1-6.8,2.9    c-1.8,1.8-2.7,4.2-2.7,6.7c0,2.5,1.1,4.9,2.9,6.6c1.8,1.8,4.2,2.7,6.7,2.7c2.5,0,4.9-1.1,6.6-2.9c1.8-1.8,2.7-4.2,2.7-6.7    s-1.1-4.9-2.9-6.6l0,0C99.3,100.7,96.9,99.8,94.5,99.8z"></path><path d="M13.4,16.9c-2.1,0-3.8-1.7-3.8-3.8s1.7-3.8,3.8-3.8s3.8,1.7,3.8,3.8S15.5,16.9,13.4,16.9z M13.4,11.3    c-1,0-1.8,0.8-1.8,1.8s0.8,1.8,1.8,1.8s1.8-0.8,1.8-1.8S14.4,11.3,13.4,11.3z"></path><path d="M23.9,16.9c-2.1,0-3.8-1.7-3.8-3.8s1.7-3.8,3.8-3.8s3.8,1.7,3.8,3.8S26,16.9,23.9,16.9z M23.9,11.3    c-1,0-1.8,0.8-1.8,1.8s0.8,1.8,1.8,1.8c1,0,1.8-0.8,1.8-1.8S24.9,11.3,23.9,11.3z"></path><path d="M34.8,16.9c-2.1,0-3.8-1.7-3.8-3.8s1.7-3.8,3.8-3.8s3.8,1.7,3.8,3.8S36.9,16.9,34.8,16.9z M34.8,11.3    c-1,0-1.8,0.8-1.8,1.8s0.8,1.8,1.8,1.8s1.8-0.8,1.8-1.8S35.8,11.3,34.8,11.3z"></path><path d="M178.4,67.6h-21.2c-1.9,0-3.5-1.6-3.5-3.5V43c0-1.9,1.6-3.5,3.5-3.5h21.2c1.9,0,3.5,1.6,3.5,3.5v21.2    C181.8,66,180.3,67.6,178.4,67.6z M157.2,41.5c-0.8,0-1.5,0.7-1.5,1.5v21.2c0,0.8,0.7,1.5,1.5,1.5h21.2c0.8,0,1.5-0.7,1.5-1.5V43    c0-0.8-0.7-1.5-1.5-1.5H157.2z"></path><path d="M165.7,60.5l-6.5-6.5c-0.6-0.6-0.6-1.5,0-2.1c0.6-0.6,1.5-0.6,2.1,0l4.4,4.4l8.2-8.2c0.6-0.6,1.5-0.6,2.1,0    s0.6,1.5,0,2.1L165.7,60.5z"></path><path d="M178.4,104h-21.2c-1.9,0-3.5-1.6-3.5-3.5V79.3c0-1.9,1.6-3.5,3.5-3.5h21.2c1.9,0,3.5,1.6,3.5,3.5v21.2    C181.8,102.4,180.3,104,178.4,104z M157.2,77.9c-0.8,0-1.5,0.7-1.5,1.5v21.2c0,0.8,0.7,1.5,1.5,1.5h21.2c0.8,0,1.5-0.7,1.5-1.5    V79.3c0-0.8-0.7-1.5-1.5-1.5H157.2z"></path><path d="M178.4,139.5h-21.2c-1.9,0-3.5-1.6-3.5-3.5v-21.2c0-1.9,1.6-3.5,3.5-3.5h21.2c1.9,0,3.5,1.6,3.5,3.5V136    C181.8,137.9,180.3,139.5,178.4,139.5z M157.2,113.4c-0.8,0-1.5,0.7-1.5,1.5V136c0,0.8,0.7,1.5,1.5,1.5h21.2    c0.8,0,1.5-0.7,1.5-1.5v-21.2c0-0.8-0.7-1.5-1.5-1.5H157.2z"></path><path d="M134.2,189.7H9.4v-23.3c0-3.8,3.1-6.9,6.9-6.9h110.9c3.8,0,6.9,3.1,6.9,6.9V189.7z M12.4,186.7h118.8v-20.3    c0-2.2-1.8-3.9-3.9-3.9H16.3c-2.2,0-3.9,1.8-3.9,3.9V186.7z"></path><path d="M165.7,96.9l-6.5-6.5c-0.6-0.6-0.6-1.5,0-2.1c0.6-0.6,1.5-0.6,2.1,0l4.4,4.4l8.2-8.2c0.6-0.6,1.5-0.6,2.1,0    s0.6,1.5,0,2.1L165.7,96.9z"></path><path d="M34.4,131.1H10.9c-1.1,0-2-0.9-2-2s0.9-2,2-2h23.5c1.1,0,2,0.9,2,2S35.5,131.1,34.4,131.1z"></path><path d="M51.1,141H10.9c-0.6,0-1-0.4-1-1s0.4-1,1-1h40.2c0.6,0,1,0.4,1,1S51.6,141,51.1,141z"></path><path d="M51.1,149.9H11.6c-0.6,0-1-0.4-1-1s0.4-1,1-1h39.5c0.6,0,1,0.4,1,1S51.6,149.9,51.1,149.9z"></path><path d="M209.9,45.2h-23.1c-1.1,0-2-0.9-2-2s0.9-2,2-2h23.1c1.1,0,2,0.9,2,2S211,45.2,209.9,45.2z"></path><path d="M222,52.2h-35.3c-0.6,0-1-0.4-1-1s0.4-1,1-1H222c0.6,0,1,0.4,1,1S222.6,52.2,222,52.2z"></path><path d="M197.9,59.4h-11.2c-0.6,0-1-0.4-1-1s0.4-1,1-1h11.2c0.6,0,1,0.4,1,1S198.5,59.4,197.9,59.4z"></path><path d="M215.4,67.6h-29c-0.6,0-1-0.4-1-1s0.4-1,1-1h29c0.6,0,1,0.4,1,1S215.9,67.6,215.4,67.6z"></path><path d="M209.9,81.5h-23.1c-1.1,0-2-0.9-2-2s0.9-2,2-2h23.1c1.1,0,2,0.9,2,2S211,81.5,209.9,81.5z"></path><path d="M202.9,87.9h-16.2c-0.6,0-1-0.4-1-1s0.4-1,1-1h16.2c0.6,0,1,0.4,1,1S203.5,87.9,202.9,87.9z"></path><path d="M222,95.1h-35.3c-0.6,0-1-0.4-1-1s0.4-1,1-1H222c0.6,0,1,0.4,1,1S222.6,95.1,222,95.1z"></path><path d="M206.6,102.8h-19.9c-0.6,0-1-0.4-1-1s0.4-1,1-1h19.9c0.6,0,1,0.4,1,1S207.2,102.8,206.6,102.8z"></path><path d="M209.9,116.7h-23.1c-1.1,0-2-0.9-2-2s0.9-2,2-2h23.1c1.1,0,2,0.9,2,2S211,116.7,209.9,116.7z"></path><path d="M209.9,130.6h-23.1c-0.6,0-1-0.4-1-1s0.4-1,1-1h23.1c0.6,0,1,0.4,1,1S210.4,130.6,209.9,130.6z"></path><path d="M209.9,137.2h-23.1c-0.6,0-1-0.4-1-1s0.4-1,1-1h23.1c0.6,0,1,0.4,1,1S210.4,137.2,209.9,137.2z"></path><path d="M222,123.9h-35.3c-0.6,0-1-0.4-1-1s0.4-1,1-1H222c0.6,0,1,0.4,1,1S222.6,123.9,222,123.9z"></path><path d="M178.4,176h-21.2c-1.9,0-3.5-1.6-3.5-3.5v-21.2c0-1.9,1.6-3.5,3.5-3.5h21.2c1.9,0,3.5,1.6,3.5,3.5v21.2    C181.8,174.5,180.3,176,178.4,176z M157.2,149.9c-0.8,0-1.5,0.7-1.5,1.5v21.2c0,0.8,0.7,1.5,1.5,1.5h21.2c0.8,0,1.5-0.7,1.5-1.5    v-21.2c0-0.8-0.7-1.5-1.5-1.5H157.2z"></path><path d="M209.9,153.2h-23.1c-1.1,0-2-0.9-2-2s0.9-2,2-2h23.1c1.1,0,2,0.9,2,2S211,153.2,209.9,153.2z"></path><path d="M209.9,167.1h-23.1c-0.6,0-1-0.4-1-1s0.4-1,1-1h23.1c0.6,0,1,0.4,1,1S210.4,167.1,209.9,167.1z"></path><path d="M209.9,173.8h-23.1c-0.6,0-1-0.4-1-1s0.4-1,1-1h23.1c0.6,0,1,0.4,1,1S210.4,173.8,209.9,173.8z"></path><path d="M222,160.5h-35.3c-0.6,0-1-0.4-1-1s0.4-1,1-1H222c0.6,0,1,0.4,1,1S222.6,160.5,222,160.5z"></path></symbol>	<symbol id="techno_2" viewBox="0 0 190.60000610351562 189.6999969482422"><path d="M131.3,118.6C98.6,118.6,72,92,72,59.3S98.6,0,131.3,0s59.3,26.6,59.3,59.3S164,118.6,131.3,118.6z M131.3,3    C100.3,3,75,28.3,75,59.3s25.3,56.3,56.3,56.3s56.3-25.3,56.3-56.3S162.4,3,131.3,3z"></path><path d="M131.3,101.8c-23.4,0-42.5-19.1-42.5-42.5s19.1-42.5,42.5-42.5s42.5,19.1,42.5,42.5S154.7,101.8,131.3,101.8z     M131.3,18.8C109,18.8,90.8,37,90.8,59.3c0,22.3,18.2,40.5,40.5,40.5s40.5-18.2,40.5-40.5C171.8,37,153.6,18.8,131.3,18.8z"></path><path d="M102.3,127.1c-1.3,0-2.7-0.5-3.7-1.5L63.5,90.5c-2.1-2.1-2.1-5.4,0-7.5l10.7-10.7l2.1,2.1L65.6,85.2    c-0.9,0.9-0.9,2.3,0,3.2l35.1,35.1c0.9,0.9,2.3,0.9,3.2,0l9.6-9.9l2.2,2.1l-9.7,9.9C105,126.6,103.6,127.1,102.3,127.1z"></path><polygon points="0.2,189.7 0,163.7 69.5,94.2 71.6,96.3 3,164.9 3.2,186.7 25,186.3 35.2,176.1 35.2,159.6     46.5,163.4 46.5,148 63.4,147.4 70.1,127.2 77.2,134.1 93.2,118.1 95.3,120.2 77.2,138.3 71.4,132.7 65.6,150.4 49.5,150.9     49.5,167.5 38.2,163.7 38.2,177.4 26.3,189.3"></polygon><path d="M93.6,16.5H73.5c-0.6,0-1-0.4-1-1s0.4-1,1-1h20.1c0.6,0,1,0.4,1,1S94.2,16.5,93.6,16.5z"></path><polygon points="80,33.7 59.2,33.7 46.8,21.3 38.3,21.3 38.3,19.3 47.6,19.3 60.1,31.7 80,31.7"></polygon><rect x="43.2" y="48.9" width="30.4" height="2"></rect><path d="M35.1,38H10.2c-0.6,0-1-0.4-1-1s0.4-1,1-1h24.9c0.6,0,1,0.4,1,1S35.7,38,35.1,38z"></path><polygon points="27.9,88.8 12.5,88.8 12.5,86.8 27.1,86.8 53.1,61.6 73.5,61.6 73.5,63.6 53.9,63.6"></polygon><path d="M52.7,93.3H40.6c-0.6,0-1-0.4-1-1s0.4-1,1-1h12.1c0.6,0,1,0.4,1,1S53.2,93.3,52.7,93.3z"></path><path d="M39.6,107.2H14.2c-0.6,0-1-0.4-1-1s0.4-1,1-1h25.4c0.6,0,1,0.4,1,1S40.1,107.2,39.6,107.2z"></path><path d="M30.9,68.5H14.2c-0.6,0-1-0.4-1-1s0.4-1,1-1h16.7c0.6,0,1,0.4,1,1S31.4,68.5,30.9,68.5z"></path><polygon points="106.5,167.9 104.5,167.9 104.5,155.4 126.7,131.6 126.7,118.4 128.7,118.4 128.7,132.3 106.5,156.2"></polygon><rect x="143.3" y="115.6" width="2" height="47.2"></rect><polygon points="175.4,170.7 173.4,170.7 173.4,150.9 156.7,133.4 156.7,110.7 158.7,110.7 158.7,132.6 175.4,150.1"></polygon><path d="M174.4,138c-0.6,0-1-0.4-1-1v-26.3c0-0.6,0.4-1,1-1s1,0.4,1,1V137C175.4,137.6,175,138,174.4,138z"></path><path d="M92.8,162.1c-0.6,0-1-0.4-1-1V137c0-0.6,0.4-1,1-1s1,0.4,1,1v24.1C93.8,161.7,93.4,162.1,92.8,162.1z"></path><path d="M127.7,179.2c-0.6,0-1-0.4-1-1v-25.2c0-0.6,0.4-1,1-1s1,0.4,1,1v25.2C128.7,178.8,128.3,179.2,127.7,179.2z"></path><path d="M157.7,166.7c-0.6,0-1-0.4-1-1v-17.2c0-0.6,0.4-1,1-1s1,0.4,1,1v17.2C158.7,166.2,158.2,166.7,157.7,166.7z"></path><path d="M33.2,26.4c-3.3,0-6.1-2.7-6.1-6.1s2.7-6.1,6.1-6.1s6.1,2.7,6.1,6.1S36.6,26.4,33.2,26.4z M33.2,16.2    c-2.2,0-4.1,1.8-4.1,4.1c0,2.2,1.8,4.1,4.1,4.1c2.2,0,4.1-1.8,4.1-4.1C37.3,18.1,35.5,16.2,33.2,16.2z"></path><path d="M37.9,56c-3.3,0-6.1-2.7-6.1-6.1s2.7-6.1,6.1-6.1s6.1,2.7,6.1,6.1S41.3,56,37.9,56z M37.9,45.8    c-2.2,0-4.1,1.8-4.1,4.1c0,2.2,1.8,4.1,4.1,4.1c2.2,0,4.1-1.8,4.1-4.1C42,47.7,40.2,45.8,37.9,45.8z"></path><path d="M7.9,93.8c-3.3,0-6.1-2.7-6.1-6.1s2.7-6.1,6.1-6.1s6.1,2.7,6.1,6.1S11.3,93.8,7.9,93.8z M7.9,83.7    c-2.2,0-4.1,1.8-4.1,4.1c0,2.2,1.8,4.1,4.1,4.1c2.2,0,4.1-1.8,4.1-4.1C12,85.5,10.2,83.7,7.9,83.7z"></path><path d="M105.5,179.1c-3.3,0-6.1-2.7-6.1-6.1s2.7-6.1,6.1-6.1s6.1,2.7,6.1,6.1S108.9,179.1,105.5,179.1z M105.5,168.9    c-2.2,0-4.1,1.8-4.1,4.1c0,2.2,1.8,4.1,4.1,4.1c2.2,0,4.1-1.8,4.1-4.1C109.6,170.8,107.8,168.9,105.5,168.9z"></path><path d="M144.3,174c-3.3,0-6.1-2.7-6.1-6.1s2.7-6.1,6.1-6.1s6.1,2.7,6.1,6.1S147.6,174,144.3,174z M144.3,163.9    c-2.2,0-4.1,1.8-4.1,4.1c0,2.2,1.8,4.1,4.1,4.1c2.2,0,4.1-1.8,4.1-4.1C148.3,165.7,146.5,163.9,144.3,163.9z"></path><path d="M174.4,181.8c-3.3,0-6.1-2.7-6.1-6.1s2.7-6.1,6.1-6.1s6.1,2.7,6.1,6.1S177.8,181.8,174.4,181.8z M174.4,171.7    c-2.2,0-4.1,1.8-4.1,4.1c0,2.2,1.8,4.1,4.1,4.1c2.2,0,4.1-1.8,4.1-4.1C178.5,173.5,176.7,171.7,174.4,171.7z"></path><rect x="12.6" y="131.4" transform="matrix(0.6993 -0.7149 0.7149 0.6993 -79.3248 77.205)" width="79" height="3"></rect><path d="M146.9,62c-1.1-1.4-2.7-2.4-4.9-2.9c2.8-1.4,4-3.8,3.7-7.3c-0.1-1.2-0.5-2.3-1-3.2c-0.6-0.9-1.3-1.6-2.3-2.2     c-1-0.6-2-1-3.2-1.3c-1.1-0.3-2.5-0.5-3.9-0.6v-7.1h-4.3v6.9c-0.8,0-1.9,0-3.4,0.1v-6.9h-4.3v7.1c-0.6,0-1.5,0-2.7,0l-6,0v4.6     h3.1c1.4,0,2.3,0.6,2.5,1.9v8.1c0.2,0,0.3,0,0.5,0H120v11.3c-0.1,1-0.7,1.4-1.6,1.4h-3.1l-0.9,5.1h5.6c0.4,0,0.9,0,1.5,0     c0.7,0,1.2,0,1.5,0v7.2h4.3v-7.1c0.8,0,1.9,0,3.4,0v7.1h4.3v-7.2c1.5-0.1,2.9-0.2,4.1-0.4c1.2-0.2,2.3-0.5,3.4-1     c1.1-0.4,2-1,2.7-1.6c0.7-0.7,1.3-1.5,1.8-2.5c0.5-1,0.8-2.2,0.9-3.5C148.4,65.4,148,63.4,146.9,62z M127.5,49.5     c0.1,0,0.5,0,1.1,0c0.6,0,1.1,0,1.5,0c0.4,0,0.9,0,1.6,0.1c0.7,0.1,1.3,0.1,1.7,0.2c0.5,0.1,1,0.2,1.5,0.5c0.6,0.2,1,0.5,1.4,0.8     c0.3,0.3,0.6,0.7,0.9,1.2c0.2,0.5,0.4,1,0.4,1.6c0,0.5-0.1,1-0.3,1.4c-0.2,0.4-0.4,0.8-0.8,1.1c-0.3,0.3-0.7,0.5-1,0.8     c-0.4,0.2-0.8,0.4-1.4,0.5c-0.6,0.1-1,0.2-1.4,0.3c-0.4,0.1-0.9,0.1-1.5,0.2c-0.6,0-1.1,0-1.4,0.1c-0.3,0-0.8,0-1.3,0     c-0.6,0-0.9,0-1,0L127.5,49.5L127.5,49.5L127.5,49.5z M139.3,68.6c-0.2,0.4-0.4,0.8-0.7,1.1c-0.3,0.3-0.7,0.6-1.1,0.8     c-0.5,0.2-0.9,0.4-1.3,0.6c-0.4,0.2-1,0.3-1.6,0.4c-0.6,0.1-1.1,0.2-1.6,0.2c-0.5,0-1,0.1-1.6,0.1c-0.6,0-1.1,0-1.5,0     c-0.4,0-0.8,0-1.4,0c-0.5,0-0.9,0-1,0v-9.5c0.1,0,0.6,0,1.3,0c0.7,0,1.3,0,1.8,0c0.5,0,1.1,0,1.9,0.1c0.8,0.1,1.5,0.1,2.1,0.3     c0.6,0.1,1.2,0.3,1.8,0.5c0.7,0.2,1.2,0.5,1.6,0.9c0.4,0.3,0.8,0.8,1,1.3c0.3,0.5,0.4,1.1,0.4,1.8     C139.6,67.7,139.5,68.2,139.3,68.6z"></path><path d="M135.7,84.8h-5.3v-7.1c-1,0-1.8,0-2.4,0v7.1h-5.3v-7.2c-0.3,0-0.6,0-1,0c-0.7,0-1.2,0-1.5,0h-6.2l1-6.1h3.5     c0.7,0,1-0.3,1.1-1l0-19.3c-0.2-0.9-0.8-1.4-2-1.4h-3.6v-5.6l6.5,0c0.9,0,1.7,0,2.2,0V37h5.3v6.9c1,0,1.8,0,2.4,0V37h5.3v7.1     c1.3,0.1,2.5,0.3,3.6,0.6c1.2,0.3,2.3,0.7,3.3,1.3c1,0.6,1.9,1.4,2.5,2.4c0.6,1,1,2.1,1.1,3.4c0.3,3.2-0.7,5.6-2.9,7.1     c1.7,0.6,3.1,1.5,4.1,2.8l0,0c1.2,1.5,1.6,3.6,1.4,6.4c-0.1,1.4-0.5,2.6-1,3.7c-0.5,1.1-1.2,2-1.9,2.7c-0.8,0.7-1.7,1.3-2.9,1.7     c-1.1,0.5-2.3,0.8-3.5,1c-1.1,0.2-2.3,0.3-3.7,0.4V84.8z M131.4,83.8h3.3v-7.1l0.5,0c1.5-0.1,2.9-0.2,4-0.4     c1.2-0.2,2.3-0.5,3.3-0.9c1-0.4,1.9-0.9,2.6-1.6c0.7-0.6,1.2-1.4,1.7-2.3c0.5-1,0.7-2.1,0.9-3.4c0.2-2.5-0.2-4.4-1.2-5.7     c-1-1.3-2.6-2.2-4.6-2.7l-1.3-0.3l1.2-0.6c2.6-1.3,3.7-3.5,3.4-6.8c-0.1-1.2-0.4-2.2-1-3c-0.5-0.8-1.2-1.5-2.1-2     c-0.9-0.5-2-0.9-3.1-1.2c-1.1-0.3-2.4-0.5-3.9-0.6l-0.5,0v-7h-3.3v6.9h-0.5c-0.7,0-1.9,0-3.4,0.1l-0.5,0v-7h-3.3V45l-0.5,0     c-0.6,0-1.5,0-2.7,0l-5.5,0v3.6h2.6c2.1,0,2.8,1.3,3,2.3l0,7.7c0,0,0,0,0,0l0,0.5h0v11.3c-0.2,1.3-0.9,1.9-2.1,1.9h-2.7l-0.7,4.1     h5c0.4,0,0.9,0,1.6,0c0.7,0,1.2,0,1.5,0h0.5v7.2h3.3v-7.1l0.5,0c0.8,0,1.9,0,3.4,0h0.5V83.8z M129.9,72.5c-0.4,0-0.8,0-1.4,0     c-0.5,0-0.9,0-1,0H127V62h0.5c0.1,0,0.6,0,1.3,0c0.7,0,1.4,0,1.8,0c0.5,0,1.1,0,2,0.1c0.8,0.1,1.6,0.1,2.1,0.3     c0.6,0.1,1.2,0.3,1.9,0.5c0.7,0.3,1.3,0.6,1.8,0.9c0.5,0.4,0.9,0.9,1.2,1.4c0.3,0.6,0.5,1.3,0.5,2c0,0.6-0.1,1.1-0.3,1.6v0     c-0.2,0.5-0.5,0.9-0.8,1.3c-0.3,0.4-0.7,0.7-1.3,1c-0.5,0.3-0.9,0.5-1.4,0.6c-0.5,0.2-1,0.3-1.6,0.4c-0.6,0.1-1.2,0.2-1.6,0.2     c-0.5,0-1,0.1-1.7,0.1C130.8,72.5,130.3,72.5,129.9,72.5z M128,71.5c0.2,0,0.3,0,0.5,0c0.5,0,1,0,1.3,0c0.4,0,0.8,0,1.5,0     c0.6,0,1.2-0.1,1.6-0.1c0.4,0,1-0.1,1.6-0.2c0.6-0.1,1.1-0.2,1.5-0.4c0.4-0.1,0.8-0.3,1.3-0.6c0.4-0.2,0.7-0.5,1-0.7     c0.2-0.3,0.4-0.6,0.6-1l0,0c0.2-0.4,0.2-0.8,0.2-1.2c0-0.6-0.1-1.1-0.4-1.6c-0.2-0.5-0.6-0.8-0.9-1.1c-0.4-0.3-0.9-0.6-1.5-0.8     c-0.6-0.2-1.2-0.4-1.8-0.5c-0.5-0.1-1.2-0.2-2-0.2c-0.8-0.1-1.4-0.1-1.9-0.1c-0.5,0-1.1,0-1.8,0c-0.3,0-0.6,0-0.8,0V71.5z      M129.2,58.6c-0.2,0-0.5,0-0.8,0c-0.5,0-0.9,0-1,0H127V49h0.5c0.1,0,0.5,0,1.1,0c0.6,0,1.1,0,1.5,0c0.4,0,1,0,1.7,0.1     c0.7,0.1,1.3,0.1,1.8,0.2c0.5,0.1,1,0.3,1.6,0.5c0.6,0.2,1.1,0.5,1.5,0.9c0.4,0.3,0.7,0.8,1,1.3c0.3,0.5,0.4,1.2,0.4,1.9     c0,0.6-0.1,1.1-0.3,1.6c-0.2,0.5-0.5,0.9-0.9,1.3c-0.4,0.3-0.7,0.6-1.1,0.8c-0.4,0.2-0.9,0.4-1.5,0.6c-0.6,0.1-1.1,0.2-1.5,0.3     c-0.4,0.1-1,0.1-1.6,0.2c-0.6,0-1.1,0-1.4,0.1C129.6,58.6,129.4,58.6,129.2,58.6z M128,57.6c0.1,0,0.3,0,0.5,0c0.5,0,1,0,1.3,0     c0.3,0,0.8,0,1.4-0.1c0.6,0,1.1-0.1,1.5-0.1c0.4-0.1,0.9-0.2,1.4-0.3c0.5-0.1,0.9-0.3,1.2-0.5c0.3-0.2,0.7-0.4,1-0.7     c0.3-0.2,0.5-0.5,0.6-0.9c0.1-0.4,0.2-0.8,0.2-1.3c0-0.5-0.1-1-0.3-1.4c-0.2-0.4-0.5-0.8-0.7-1c-0.3-0.3-0.7-0.5-1.2-0.7     c-0.5-0.2-1-0.4-1.5-0.4c-0.4-0.1-1-0.2-1.7-0.2c-0.7-0.1-1.2-0.1-1.6-0.1c-0.4,0-0.9,0-1.5,0c-0.2,0-0.5,0-0.6,0L128,57.6z"></path></symbol>	<symbol id="techno_3" viewBox="0 0 184.8000030517578 172.89999389648438"><path d="M25.5,91.7L0,73.6l25.5-18.1l25.5,18.1L25.5,91.7z M5.2,73.6l20.3,14.4l20.3-14.4L25.5,59.2L5.2,73.6z"></path><polygon points="27,117.8 0.1,99.9 0.5,73.7 3.5,73.7 3.1,98.3 24,112.2 24,89.9 27,89.9"></polygon><polygon points="26.8,117.1 25.1,114.6 47.7,98.4 47.5,73.6 50.5,73.6 50.8,99.9"></polygon><path d="M59.6,146.9l-25.5-18.1l25.5-18.1l25.5,18.1L59.6,146.9z M39.3,128.8l20.3,14.4l20.3-14.4l-20.3-14.4     L39.3,128.8z"></path><polygon points="61.1,172.9 34.2,155.1 34.6,128.8 37.6,128.8 37.2,153.5 58.1,167.3 58.1,145 61.1,145"></polygon><polygon points="60.9,172.2 59.1,169.8 81.8,153.6 81.5,128.8 84.5,128.7 84.8,155.1"></polygon><path d="M94.4,91.7L68.9,73.6l25.5-18.1L120,73.6L94.4,91.7z M74.1,73.6l20.3,14.4l20.3-14.4L94.4,59.2L74.1,73.6z"></path><polygon points="95.9,117.8 69,99.9 69.4,73.7 72.4,73.7 72,98.3 92.9,112.2 92.9,89.9 95.9,89.9"></polygon><polygon points="95.7,117.1 93.9,114.6 116.6,98.4 116.3,73.6 119.3,73.6 119.6,99.9"></polygon><path d="M125.4,36.2L99.9,18.1L125.4,0l25.5,18.1L125.4,36.2z M105.1,18.1l20.3,14.4l20.3-14.4L125.4,3.7L105.1,18.1     z"></path><polygon points="126.9,62.2 100,44.4 100.4,18.1 103.4,18.1 103,42.8 123.9,56.6 123.9,34.3 126.9,34.3"></polygon><polygon points="126.7,61.5 124.9,59.1 147.6,42.9 147.3,18.1 150.3,18 150.6,44.4"></polygon><path d="M159.3,91.7l-25.5-18.1l25.5-18.1l25.5,18.1L159.3,91.7z M139,73.6l20.3,14.4l20.3-14.4l-20.3-14.4L139,73.6     z"></path><polygon points="160.8,117.8 133.9,99.9 134.3,73.7 137.3,73.7 136.9,98.3 157.8,112.2 157.8,89.9 160.8,89.9"></polygon><polygon points="160.6,117.1 158.8,114.6 181.5,98.4 181.2,73.6 184.2,73.6 184.5,99.9"></polygon><path d="M27.5,50.4l-2.9-0.7c0,0,0.3-1.2,1-3l2.8,1.1C27.7,49.4,27.5,50.4,27.5,50.4z"></path><path d="M30.7,42.4L28.1,41c0.9-1.8,2-3.6,3.1-5.3l2.5,1.7C32.6,39,31.6,40.7,30.7,42.4z M37.2,32.6l-2.3-1.9     c1.3-1.6,2.7-3.1,4.2-4.6l2.1,2.1C39.8,29.6,38.4,31.1,37.2,32.6z M45.5,24.3L43.6,22c1.6-1.3,3.3-2.5,5-3.6l1.6,2.5     C48.6,22,47,23.1,45.5,24.3z M55.4,17.9L54,15.3c1.8-0.9,3.7-1.8,5.6-2.6l1.1,2.8C58.9,16.2,57.1,17,55.4,17.9z M66.2,13.5     l-0.9-2.9c1.9-0.6,3.9-1.1,5.9-1.6L72,12C70,12.4,68.1,12.9,66.2,13.5z M77.8,10.9l-0.4-3c2-0.3,4-0.5,6.1-0.7l0.2,3     C81.7,10.4,79.7,10.6,77.8,10.9z M95.5,10c-2-0.1-4-0.1-5.9,0l-0.1-3c2,0,4,0,6.1,0L95.5,10z"></path><path d="M104.5,10.6c-1-0.1-2-0.2-3-0.3l0.2-3c1,0.1,2,0.2,3,0.3L104.5,10.6z"></path><path d="M156.8,122.7l-2.9-0.8c0.5-1.7,0.6-2.7,0.6-2.7l3,0.4C157.5,119.6,157.3,120.8,156.8,122.7z"></path><path d="M97.4,160.4l0-3c2.1,0,4.1-0.1,6.1-0.3l0.2,3C101.7,160.2,99.6,160.3,97.4,160.4z M109.9,159.4l-0.4-3     c2-0.3,4-0.6,5.9-1.1l0.6,2.9C114.1,158.8,112,159.1,109.9,159.4z M122.1,156.7l-0.9-2.9c1.9-0.6,3.8-1.3,5.6-2.1l1.2,2.8     C126.1,155.3,124.1,156.1,122.1,156.7z M133.7,151.7l-1.5-2.6c1.7-1,3.4-2.1,5-3.2l1.8,2.4C137.3,149.5,135.5,150.7,133.7,151.7z      M143.9,144.2l-2.1-2.2c1.4-1.4,2.8-2.8,4-4.4l2.3,1.9C146.8,141.2,145.4,142.8,143.9,144.2z M151.8,134.4l-2.6-1.6     c1-1.7,1.9-3.5,2.7-5.3l2.8,1.2C153.9,130.7,152.9,132.6,151.8,134.4z"></path><path d="M91.2,160.3c-1,0-2-0.1-3-0.1l0.2-3c1,0.1,2,0.1,3,0.1L91.2,160.3z"></path></symbol>	<symbol id="wezom-logo" viewBox="0 0 57 21"><path d="M1.106,1.145c1.478-1.556,3.873-1.556,5.351,0l12.392,13.042 c1.477,1.555,1.477,4.076,0,5.632c-1.478,1.556-3.874,1.556-5.351,0L1.106,6.777C-0.371,5.222-0.371,2.7,1.106,1.145z"/><path d="M31.195,1.145c-1.478-1.556-3.874-1.556-5.351,0L13.453,14.188 c-1.478,1.555-1.478,4.076,0,5.632s3.873,1.556,5.351,0L31.195,6.777C32.672,5.222,32.672,2.7,31.195,1.145z"/><path d="M25.799,1.145c1.478-1.556,3.874-1.556,5.351,0l12.391,13.042 c1.478,1.555,1.478,4.076,0,5.632s-3.873,1.556-5.351,0L25.799,6.777C24.321,5.222,24.321,2.7,25.799,1.145z"/><path d="M55.887,1.145c-1.478-1.556-3.873-1.556-5.351,0L38.146,14.188 c-1.478,1.555-1.478,4.076,0,5.632s3.873,1.556,5.351,0L55.887,6.777C57.365,5.222,57.365,2.7,55.887,1.145z"/></symbol>	<symbol id="work_g1" viewBox="0 0 152.8000030517578 194.8000030517578"><title></title><polygon points="74.9,53.5 53.8,37.4 61.5,19.7 64.3,20.9 57.5,36.5 75,49.8 93.4,37 89.6,20.6 92.5,19.9 96.8,38.3"></polygon><polygon points="2.4,86.6 1.9,83.6 24.4,79.6 28.3,57.3 15.3,51.2 16.6,48.5 31.6,55.5 27,82.2"></polygon><polygon points="27.5,149.6 24.6,149.2 27.4,126.7 3.4,114.6 4.7,111.9 30.7,125"></polygon><path d="M29.1,127.4c-0.6,0-1.2-0.4-1.4-1c-0.3-0.8,0.1-1.6,0.9-1.9l23.2-8.7c0.8-0.3,1.6,0.1,1.9,0.9     s-0.1,1.6-0.9,1.9l-23.2,8.7C29.4,127.3,29.2,127.4,29.1,127.4z"></path><polygon points="150.5,86.6 123.9,82.2 120.2,55.9 136.1,48.5 137.4,51.2 123.5,57.7 126.6,79.6 151,83.6"></polygon><polygon points="123.8,149.6 120.2,125 148,112.4 149.2,115.2 123.5,126.8 126.7,149.2"></polygon><polygon points="91.4,168 88.5,167.3 93.4,148.4 75.5,135.3 57.4,148.4 63.4,167 60.6,168 53.9,147.2 75.5,131.6      96.8,147.2"></polygon><path d="M88.4,113.5H61.6l-7.7-26.7l21.6-16.6l21.4,17.5L88.4,113.5z M63.8,110.5h22.4l7.1-21.7L75.4,74.1L57.3,88     L63.8,110.5z"></path><path d="M55.6,88.9c-0.1,0-0.1,0-0.2,0l-18.6-2.3c-0.8-0.1-1.4-0.9-1.3-1.7c0.1-0.8,0.8-1.4,1.7-1.3l18.6,2.3     c0.8,0.1,1.4,0.9,1.3,1.7C57,88.4,56.4,88.9,55.6,88.9z"></path><path d="M95.1,89.8c-0.7,0-1.4-0.5-1.5-1.3c-0.1-0.8,0.4-1.6,1.3-1.7l21.1-3.2c0.8-0.1,1.6,0.4,1.7,1.3     s-0.4,1.6-1.3,1.7l-21.1,3.2C95.3,89.8,95.2,89.8,95.1,89.8z"></path><path d="M75.5,73.7c-0.8,0-1.5-0.7-1.5-1.5V60c0-0.8,0.7-1.5,1.5-1.5S77,59.1,77,60v12.2C77,73,76.3,73.7,75.5,73.7z"></path><path d="M29.9,57.9c-0.5,0-1-0.2-1.3-0.7c-0.4-0.7-0.2-1.6,0.4-2.1l16.5-10.6c0.7-0.4,1.6-0.2,2.1,0.4     c0.4,0.7,0.2,1.6-0.4,2.1L30.7,57.7C30.5,57.8,30.2,57.9,29.9,57.9z"></path><path d="M121.9,58.3c-0.3,0-0.6-0.1-0.8-0.3l-16.1-11c-0.7-0.5-0.9-1.4-0.4-2.1c0.5-0.7,1.4-0.9,2.1-0.4l16.1,11     c0.7,0.5,0.9,1.4,0.4,2.1C122.8,58,122.4,58.3,121.9,58.3z"></path><path d="M75.5,135c-0.8,0-1.5-0.7-1.5-1.5v-13.6c0-0.8,0.7-1.5,1.5-1.5s1.5,0.7,1.5,1.5v13.6     C77,134.3,76.3,135,75.5,135z"></path><path d="M121.9,127.4c-0.2,0-0.4,0-0.5-0.1l-22.5-8.7c-0.8-0.3-1.2-1.2-0.9-1.9s1.2-1.2,1.9-0.9l22.5,8.7     c0.8,0.3,1.2,1.2,0.9,1.9C123,127,122.5,127.4,121.9,127.4z"></path><path d="M29.9,154.1c-0.3,0-0.7-0.1-0.9-0.3c-16-12.7-26.1-30.8-28.5-51c-2.4-20.3,3.3-40.2,16-56.2     c18.3-23.1,48.6-33.7,77.2-27c0.8,0.2,1.3,1,1.1,1.8c-0.2,0.8-1,1.3-1.8,1.1C65.5,16,36.4,26.2,18.8,48.4     C6.7,63.8,1.2,82.9,3.5,102.4c2.3,19.5,12,36.9,27.4,49c0.6,0.5,0.8,1.5,0.2,2.1C30.8,153.9,30.4,154.1,29.9,154.1z"></path><path d="M76.5,170.4c-9.9,0-19.9-1.9-29.4-5.9c-0.8-0.3-1.1-1.2-0.8-2c0.3-0.8,1.2-1.1,2-0.8     c25.4,10.6,54.3,6.2,75.4-11.6c31-26,35-72.4,9-103.4c-0.5-0.6-0.5-1.6,0.2-2.1c0.6-0.5,1.6-0.5,2.1,0.2     c27.1,32.2,22.9,80.5-9.3,107.6C111.5,164.2,94.1,170.4,76.5,170.4z"></path><path d="M104.5,17c-0.3,0-0.6-0.1-0.8-0.2c-0.7-0.5-0.9-1.4-0.4-2.1l6.9-10.5c0.5-0.7,1.4-0.9,2.1-0.4     c0.7,0.5,0.9,1.4,0.4,2.1l-6.9,10.5C105.5,16.8,105,17,104.5,17z"></path><path d="M133,32.2c-0.3,0-0.6-0.1-0.8-0.3c-0.7-0.5-0.9-1.4-0.4-2.1l7.1-10.5c0.5-0.7,1.4-0.9,2.1-0.4     c0.7,0.5,0.9,1.4,0.4,2.1l-7.1,10.5C134,32,133.5,32.2,133,32.2z"></path><path d="M109.8,40.7c-0.3,0-0.6-0.1-0.8-0.3c-0.7-0.5-0.9-1.4-0.4-2.1l25.5-37.7c0.5-0.7,1.4-0.9,2.1-0.4     c0.7,0.5,0.9,1.4,0.4,2.1l-25.5,37.7C110.8,40.5,110.3,40.7,109.8,40.7z"></path><path d="M8.9,171.3c-0.3,0-0.6-0.1-0.8-0.2c-0.7-0.5-0.9-1.4-0.4-2.1l6.9-10.5c0.5-0.7,1.4-0.9,2.1-0.4     c0.7,0.5,0.9,1.4,0.4,2.1l-6.9,10.5C9.8,171.1,9.3,171.3,8.9,171.3z"></path><path d="M37.4,186.5c-0.3,0-0.6-0.1-0.8-0.2c-0.7-0.5-0.9-1.4-0.4-2.1l6.9-10.4c0.5-0.7,1.4-0.9,2.1-0.4     c0.7,0.5,0.9,1.4,0.4,2.1l-6.9,10.4C38.3,186.3,37.9,186.5,37.4,186.5z"></path><path d="M14.2,194.8c-0.3,0-0.6-0.1-0.8-0.3c-0.7-0.5-0.9-1.4-0.4-2.1l25.5-37.7c0.5-0.7,1.4-0.9,2.1-0.4     c0.7,0.5,0.9,1.4,0.4,2.1l-25.5,37.7C15.1,194.6,14.7,194.8,14.2,194.8z"></path></symbol>	<symbol id="work_g2" viewBox="0 0 208.60000610351562 163.60000610351562"><title></title><path d="M104.3,1.6L104.3,1.6z"></path><path d="M104.3,163.6l-0.6-0.3L0,118.8V46.3L104.3,0l0.6,0.3l103.7,46.4v72.8L104.3,163.6z M3,116.9l101.3,43.5     l101.3-42.9V48.6L104.3,3.3L3,48.2V116.9z"></path><polygon points="206.5,119.8 104.3,75.9 2.1,119.2 0.9,116.5 102.8,73.3 102.8,57.6 105.8,57.6 105.8,73.3      207.7,117.1"></polygon><path d="M11.4,100.9V56.6l49-20.9v45L11.4,100.9z M14.4,58.6v37.8l43-17.7V40.2L14.4,58.6z"></path><path d="M165,90.2l-49-22V23.9l49,21.3V90.2z M119,66.3l43,19.3V47.2l-43-18.7V66.3z"></path><path d="M196.7,104l-23.2-10.4l0.1-44.7L196.7,59V104z M176.5,91.6l17.2,7.7V60.9l-17.1-7.5L176.5,91.6z"></path><path d="M67.5,52.3V32.7l21.3-9.1v19.9L67.5,52.3z M70.5,34.7v13.1l15.3-6.3V28.2L70.5,34.7z"></path><path d="M67.5,78.7V59.1l21.3-9.1v19.9L67.5,78.7z M70.5,61.1v13.1l15.3-6.3V54.6L70.5,61.1z"></path><path d="M104.3,112.8l-23.6-11.1l23.6-12.6l23.6,12.6L104.3,112.8z M87.3,101.6l17,8l16.8-7.9l-16.9-9.1L87.3,101.6z"></path><polygon points="102.7,131.5 102.7,130 82.5,120.9 82.5,101.6 85.5,101.6 85.5,119 102.7,126.7 102.8,111.2      105.8,111.2 105.7,126.6 122.9,118.1 122.9,101.6 125.9,101.6 125.9,119.9 105.7,130 105.7,131.4 104.2,130.7"></polygon></symbol>	<symbol id="work_g3" viewBox="0 0 176 146.89999389648438"><title></title><path d="M99.9,74.6c-20.6,0-37.3-16.7-37.3-37.3C62.6,16.7,79.3,0,99.9,0c20.6,0,37.3,16.7,37.3,37.3     C137.2,57.8,120.5,74.6,99.9,74.6z M99.9,3C81,3,65.6,18.4,65.6,37.3c0,18.9,15.4,34.3,34.3,34.3c18.9,0,34.3-15.4,34.3-34.3     C134.2,18.4,118.8,3,99.9,3z"></path><path d="M31.7,146.9c-3.3,0-6.7-1-10-3.4c-4.6-3.2-7.1-7.3-7.7-12c-1.1-9.9,7.1-19.3,7.4-19.7     c0.6-0.6,1.5-0.7,2.1-0.1c0.6,0.5,0.7,1.5,0.1,2.1c-0.1,0.1-7.7,8.8-6.7,17.3c0.4,3.9,2.6,7.2,6.4,9.9c13.2,9.4,27.5-8,30.2-11.5     c0.5-0.6,1-1.3,1.6-1.9l32.1-32.5c5.8-5.3,14.6-5.3,20.3-0.1c2.9,2.4,4.5,5.3,4.8,8.7c0.5,6.6-4.4,12.4-4.7,12.7     c-5.8,6.7-12.1,13.1-18.6,19.1c-0.6,0.6-1.6,0.5-2.1-0.1c-0.6-0.6-0.5-1.6,0.1-2.1c6.4-5.9,12.6-12.3,18.3-18.9     c0,0,4.4-5.1,3.9-10.5c-0.2-2.5-1.5-4.8-3.8-6.7c-4.7-4.3-11.7-4.3-16.3,0l-32.1,32.4c-0.5,0.5-0.9,1-1.4,1.6     C53.6,134.5,43.4,146.9,31.7,146.9z"></path><path d="M119.3,68.1c-0.8,0-1.5-0.3-2.1-0.9L69.9,21.9c-1.6-1.5-1.7-4-0.4-5.7c1.5-2.2,3.3-4.3,5.2-6.3l0.1-0.1     c2.4-1.8,4.9-3.5,7.4-5c1.6-1,3.7-0.8,5,0.5l0,0l44.3,46.4c1.1,1.2,1.2,3,0.1,4.2c-1.3,2.2-2.8,4.3-4.3,6.3l-0.1,0.1     c-1.8,1.9-3.9,3.6-6.2,4.9C120.7,67.9,120,68.1,119.3,68.1z M76.8,12.1c-1.8,1.8-3.4,3.7-4.8,5.8L71.9,18     c-0.4,0.5-0.4,1.2,0.1,1.7l47.3,45.4l0.1-0.1l0.2-0.1c2.1-1.2,3.9-2.7,5.5-4.4c1.5-2,2.9-4,4.1-6.1l0.2-0.2     c0.1-0.1,0.1-0.2,0-0.3L85.2,7.5c-0.4-0.3-0.9-0.4-1.4-0.1C81.4,8.8,79,10.4,76.8,12.1z"></path><polygon points="30.2,123.5 13.5,105.2 65.8,50.1 68,52.2 17.6,105.2 30.4,119.3 84.8,69 86.8,71.3"></polygon><rect x="53.9" y="68.9" transform="matrix(0.7127 -0.7015 0.7015 0.7127 -41.1111 62.2142)" width="3" height="24.9"></rect><path d="M11.1,72.3C5,72.3,0,67.3,0,61.2c0-6.1,5-11.1,11.1-11.1c6.1,0,11.1,5,11.1,11.1     C22.2,67.3,17.2,72.3,11.1,72.3z M11.1,53.1c-4.5,0-8.1,3.6-8.1,8.1c0,4.5,3.6,8.1,8.1,8.1c4.5,0,8.1-3.6,8.1-8.1     C19.2,56.7,15.6,53.1,11.1,53.1z"></path><path d="M31.2,51.9c-6.1,0-11.1-5-11.1-11.1s5-11.1,11.1-11.1c6.1,0,11.1,5,11.1,11.1S37.3,51.9,31.2,51.9z      M31.2,32.7c-4.5,0-8.1,3.6-8.1,8.1s3.6,8.1,8.1,8.1c4.5,0,8.1-3.6,8.1-8.1S35.7,32.7,31.2,32.7z"></path><path d="M16.3,54.6c-0.7,0-1.3-0.5-1.5-1.2L8.1,18.9L29.5,0.6l8.2,31.6c0.2,0.8-0.3,1.6-1.1,1.8     c-0.8,0.2-1.6-0.3-1.8-1.1l-7-27L11.4,20.1l6.3,32.7c0.2,0.8-0.4,1.6-1.2,1.8C16.4,54.6,16.4,54.6,16.3,54.6z"></path><path d="M166.6,60.9c-4.6,0-8.3-3.7-8.3-8.3s3.7-8.3,8.3-8.3s8.3,3.7,8.3,8.3S171.2,60.9,166.6,60.9z M166.6,47.3     c-2.9,0-5.3,2.4-5.3,5.3s2.4,5.3,5.3,5.3s5.3-2.4,5.3-5.3S169.5,47.3,166.6,47.3z"></path><path d="M170,48.1c-0.6,0-1.2-0.4-1.4-1l-9.3-24l15.3,1c0.8,0.1,1.5,0.8,1.4,1.6c-0.1,0.8-0.7,1.4-1.6,1.4l-10.6-0.7     l7.6,19.6c0.3,0.8-0.1,1.6-0.9,1.9C170.3,48.1,170.2,48.1,170,48.1z"></path><path d="M132.4,133.7c-1.8,0-3.7-0.4-5.4-1.4c-2.6-1.5-4.5-3.8-5.4-6.7c-0.8-2.9-0.5-5.9,1-8.5s3.8-4.5,6.7-5.4     c2.9-0.8,5.9-0.5,8.5,1c2.6,1.5,4.5,3.8,5.4,6.7c0.8,2.9,0.5,5.9-1,8.5C140.2,131.6,136.4,133.7,132.4,133.7z M132.4,114.3     c-0.8,0-1.5,0.1-2.3,0.3c-2.1,0.6-3.9,2-4.9,3.9c-2.2,4-0.7,9,3.2,11.2c4,2.2,9,0.7,11.2-3.2c2.2-4,0.7-9-3.2-11.2     C135.2,114.6,133.8,114.3,132.4,114.3z"></path><path d="M140.8,118.5c-0.1,0-0.1,0-0.2,0c-0.8-0.1-1.4-0.9-1.3-1.7l4.7-35.1l17.7,11.2c0.7,0.4,0.9,1.4,0.5,2.1     c-0.4,0.7-1.4,0.9-2.1,0.5l-13.7-8.7l-4.1,30.5C142.2,117.9,141.5,118.5,140.8,118.5z"></path></symbol>	<symbol id="work_g4" viewBox="0 0 181 175.39999389648438"><title></title><path d="M169.4,175.4H11.6c-6.4,0-11.6-5.2-11.6-11.6V65.6C0,59.2,5.2,54,11.6,54h157.9c6.4,0,11.6,5.2,11.6,11.6     v98.2C181,170.2,175.8,175.4,169.4,175.4z M11.6,57C6.8,57,3,60.8,3,65.6v98.2c0,4.7,3.8,8.6,8.6,8.6h157.9     c4.7,0,8.6-3.8,8.6-8.6V65.6c0-4.7-3.8-8.6-8.6-8.6H11.6z"></path><rect x="118.1" y="17.5" transform="matrix(0.6416 -0.7671 0.7671 0.6416 11.6917 106.3511)" width="3" height="46.4"></rect><rect x="38.1" y="38.7" transform="matrix(0.7604 -0.6494 0.6494 0.7604 -11.4672 49.3653)" width="46.1" height="3"></rect><path d="M90.5,32.6c-9,0-16.3-7.3-16.3-16.3S81.5,0,90.5,0c0,0,0,0,0.1,0c8.9,0,16.2,7.2,16.2,16.2v0.1     C106.8,25.3,99.5,32.6,90.5,32.6z M90.6,3C90.6,3,90.5,3,90.6,3c-7.4,0-13.4,6-13.4,13.3c0,7.3,6,13.3,13.3,13.3     c7.3,0,13.3-6,13.3-13.3v-0.1c0-3.6-1.4-6.9-3.9-9.4C97.4,4.4,94.1,3,90.6,3z"></path><path d="M143.7,139H32.3l49-54.8l26.6,35.6l11.7-17.2L143.7,139z M39.1,136h99.1l-18.5-28l-11.5,17l-27-36.1     L39.1,136z"></path><path d="M108.4,100c-4.4,0-8-3.6-8-8c0-4.4,3.6-8,8-8c4.4,0,8,3.6,8,8C116.4,96.4,112.8,100,108.4,100z M108.4,86.9     c-2.8,0-5,2.3-5,5c0,2.8,2.3,5,5,5c2.8,0,5-2.3,5-5C113.4,89.2,111.1,86.9,108.4,86.9z"></path></symbol><symbol id = "social_telegram" viewBox = "0 0 512 512"> <g>
  	<g>
  		<g>
  			<path d="M385.268,121.919l-210.569,129.69c-11.916,7.356-17.555,21.885-13.716,35.323l22.768,80
  				c1.945,6.821,8.015,11.355,14.999,11.355c0.389,0,0.782-0.014,1.176-0.043c7.466-0.542,13.374-6.103,14.367-13.515l5.92-43.866
  				c0.798-5.902,3.642-11.392,8.001-15.45l173.765-161.524c5.251-4.869,5.945-12.842,1.618-18.545
  				C399.263,119.636,391.388,118.16,385.268,121.919z M214.32,290.478c-7.808,7.268-12.895,17.089-14.323,27.655l-2.871,21.278
  				l-16.527-58.072c-1.343-4.704,0.635-9.791,4.805-12.365l154.258-95.007L214.32,290.478z"/>
  			<path d="M503.67,37.382c-6.579-5.576-15.657-7.111-23.698-4.005L15.08,212.719C5.873,216.27-0.047,224.939,0,234.804
  				c0.048,9.874,6.055,18.495,15.316,21.965l108.59,40.529l42.359,136.225c2.326,7.489,8.197,13.308,15.703,15.566
  				c7.502,2.256,15.604,0.643,21.66-4.31l63.14-51.473c3.032-2.472,7.362-2.594,10.528-0.295l113.883,82.681
  				c4.097,2.978,8.932,4.511,13.823,4.511c2.865,0,5.749-0.526,8.517-1.596c7.486-2.895,12.93-9.312,14.56-17.163l83.429-401.309
  				C513.26,51.685,510.257,42.967,503.67,37.382z M491.536,55.99l-83.428,401.308c-0.302,1.45-1.346,2.053-1.942,2.284
  				c-0.6,0.232-1.785,0.489-2.997-0.393l-113.887-82.685c-5.091-3.696-11.077-5.531-17.052-5.531
  				c-6.518,0-13.027,2.185-18.347,6.519l-63.154,51.485c-1.124,0.92-2.291,0.756-2.885,0.577c-0.598-0.18-1.665-0.69-2.099-2.086
  				l-43.845-141.006c-0.937-3.013-3.217-5.423-6.173-6.527L22.462,237.662c-1.696-0.635-2.057-1.958-2.062-2.957
  				c-0.005-0.99,0.343-2.307,2.023-2.955L487.316,52.409c0.002-0.001,0.005-0.002,0.008-0.003c1.51-0.583,2.627,0.087,3.159,0.537
  				C491.017,53.398,491.867,54.398,491.536,55.99z"/>
  		</g>
  	</g>
  </g>
  <g>
  	<g>
  		<path d="M427.481,252.142c-5.506-1.196-10.936,2.299-12.131,7.804l-1.55,7.14c-1.195,5.505,2.299,10.936,7.804,12.131
  			c0.729,0.158,1.456,0.234,2.174,0.234c4.695,0,8.92-3.262,9.958-8.037l1.55-7.14C436.48,258.769,432.985,253.338,427.481,252.142z
  			"/>
  	</g>
  </g>
  <g>
  	<g>
  		<path d="M417.281,299.122c-5.512-1.195-10.938,2.299-12.132,7.804l-23.459,108.051c-1.195,5.505,2.299,10.936,7.803,12.131
  			c0.73,0.158,1.457,0.234,2.174,0.234c4.696,0,8.92-3.262,9.958-8.037l23.459-108.052
  			C426.279,305.748,422.785,300.317,417.281,299.122z"/>
  	</g>
  </g></symbol><symbol id = "social_github" viewBox = "0 0 512 512"> <path d="M256,0C114.615,0,0,114.615,0,256s114.615,256,256,256s256-114.615,256-256S397.385,0,256,0z M408.027,408.027   c-19.76,19.759-42.756,35.267-68.354,46.094c-6.502,2.75-13.105,5.164-19.801,7.246V423c0-20.167-6.916-35-20.75-44.5   c8.668-0.833,16.625-2,23.875-3.5s14.918-3.667,23-6.5c8.084-2.833,15.334-6.208,21.75-10.125c6.418-3.917,12.584-9,18.5-15.25   c5.918-6.25,10.875-13.333,14.875-21.25s7.168-17.417,9.5-28.5c2.334-11.083,3.5-23.292,3.5-36.625c0-25.833-8.416-47.833-25.25-66   c7.668-20,6.834-41.75-2.5-65.25l-6.25-0.75c-4.332-0.5-12.125,1.333-23.375,5.5s-23.875,11-37.875,20.5   c-19.832-5.5-40.416-8.25-61.749-8.25c-21.5,0-42,2.75-61.5,8.25c-8.833-6-17.208-10.958-25.125-14.875s-14.25-6.583-19-8   s-9.167-2.292-13.25-2.625s-6.708-0.417-7.875-0.25s-2,0.333-2.5,0.5c-9.333,23.667-10.167,45.417-2.5,65.25   c-16.833,18.167-25.25,40.167-25.25,66c0,13.333,1.167,25.542,3.5,36.625s5.5,20.583,9.5,28.5s8.958,15,14.875,21.25   s12.083,11.333,18.5,15.25s13.667,7.292,21.75,10.125s15.75,5,23,6.5s15.208,2.667,23.875,3.5c-13.667,9.333-20.5,24.167-20.5,44.5   v39.115c-7.549-2.247-14.99-4.902-22.3-7.994c-25.597-10.827-48.594-26.335-68.353-46.094   c-19.758-19.758-35.267-42.756-46.093-68.354C46.679,313.195,41,285.043,41,256s5.679-57.195,16.879-83.675   c10.827-25.597,26.335-48.594,46.093-68.353c19.758-19.759,42.756-35.267,68.353-46.093C198.805,46.679,226.957,41,256,41   s57.195,5.679,83.676,16.879c25.598,10.827,48.594,26.335,68.354,46.093c19.758,19.758,35.266,42.756,46.092,68.353   C465.32,198.805,471,226.957,471,256s-5.68,57.195-16.879,83.675C443.295,365.271,427.785,388.27,408.027,408.027z"/></symbol><symbol id = "play_icon" viewBox="0 0 350 350"><path id="XMLID_823_" d="M297.917,64.645c-11.19-13.302-31.85-18.728-71.306-18.728H83.386c-40.359,0-61.369,5.776-72.517,19.938   C0,79.663,0,100.008,0,128.166v53.669c0,54.551,12.896,82.248,83.386,82.248h143.226c34.216,0,53.176-4.788,65.442-16.527   C304.633,235.518,310,215.863,310,181.835v-53.669C310,98.471,309.159,78.006,297.917,64.645z M199.021,162.41l-65.038,33.991   c-1.454,0.76-3.044,1.137-4.632,1.137c-1.798,0-3.592-0.484-5.181-1.446c-2.992-1.813-4.819-5.056-4.819-8.554v-67.764   c0-3.492,1.822-6.732,4.808-8.546c2.987-1.814,6.702-1.938,9.801-0.328l65.038,33.772c3.309,1.718,5.387,5.134,5.392,8.861   C204.394,157.263,202.325,160.684,199.021,162.41z" fill="#FFFFFF"/></symbol><symbol id = "social_bitcoin" viewBox="0 0 397.6 397.6"><path d="M198.8,42.8c-86,0-156,70-156,156s70,156,156,156s156-70,156-156S284.8,42.8,198.8,42.8z M198.8,342
    c-79.2,0-143.2-64.4-143.2-143.2c0-79.2,64.4-143.2,143.2-143.2S342,119.6,342,198.8S278,342,198.8,342z"/>
  <path d="M198.8,0C89.2,0,0,89.2,0,198.8s89.2,198.8,198.8,198.8s198.8-89.2,198.8-198.8S308.4,0,198.8,0z M198.8,385.2
    C96,385.2,12.4,301.6,12.4,198.8S96,12.4,198.8,12.4S385.2,96,385.2,198.8S301.6,385.2,198.8,385.2z"/>
  <path d="M251.6,199.6c12-8.4,20.4-22.4,20.4-38.4c0-24-19.6-43.6-43.6-43.6h-2v-20c0-3.6-2.8-6.4-6.4-6.4c-3.6,0-6.4,2.8-6.4,6.4
    v20h-30.8v-20c0-3.6-2.8-6.4-6.4-6.4s-5.6,3.2-5.6,6.4v20H146c-3.6,0-6.4,2.8-6.4,6.4c0,3.6,2.8,6.4,6.4,6.4h24.8v62.4h-6.4
    c-3.6,0-6.4,2.8-6.4,6.4c0,3.6,2.8,6.4,6.4,6.4h6.4V268H146c-3.6,0-6.4,2.8-6.4,6.4c0,3.6,2.8,6.4,6.4,6.4h24.8v20
    c0,3.6,2.8,6.4,6.4,6.4c3.6,0,6.4-2.8,6.4-6.4v-20h30.8v20c0,3.6,2.8,6.4,6.4,6.4c3.6,0,6.4-2.8,6.4-6.4v-20h2
    c24,0,43.6-19.6,43.6-43.6C272.8,221.2,264.4,207.6,251.6,199.6z M183.2,192.4v-62h45.2c17.2,0,31.2,14,31.2,31.2
    s-14,31.2-31.2,31.2h-45.2V192.4z M228.4,267.6H220h-36.8v-62.4h45.2c17.2,0,31.2,14,31.2,31.2S245.6,267.6,228.4,267.6z"/> </symbol><symbol id = "apple" viewBox="0 0 512 512"><path d="M395.748,272.046c-0.646-64.841,52.88-95.938,55.271-97.483c-30.075-44.01-76.925-50.039-93.62-50.736
  		c-39.871-4.037-77.798,23.474-98.033,23.474c-20.184,0-51.409-22.877-84.476-22.276c-43.458,0.646-83.529,25.269-105.906,64.19
  		c-45.152,78.35-11.563,194.42,32.445,257.963c21.504,31.104,47.146,66.038,80.813,64.79c32.421-1.294,44.681-20.979,83.878-20.979
  		c39.196,0,50.215,20.979,84.524,20.335c34.888-0.648,56.991-31.699,78.347-62.898c24.694-36.084,34.862-71.019,35.462-72.812
  		C463.678,375.26,396.422,349.495,395.748,272.046z M331.28,81.761C349.149,60.082,361.21,30.005,357.92,0
  		c-25.739,1.048-56.938,17.145-75.405,38.775c-16.57,19.188-31.075,49.813-27.188,79.218
  		C284.061,120.235,313.392,103.391,331.28,81.761z"/> </symbol> <symbol id = "back" viewBox="0 0 477.175 477.175"><path d="M145.188,238.575l215.5-215.5c5.3-5.3,5.3-13.8,0-19.1s-13.8-5.3-19.1,0l-225.1,225.1c-5.3,5.3-5.3,13.8,0,19.1l225.1,225
    		c2.6,2.6,6.1,4,9.5,4s6.9-1.3,9.5-4c5.3-5.3,5.3-13.8,0-19.1L145.188,238.575z"/> </symbol>  <symbol id = "next" viewBox="0 0 477.175 477.175" > <path d="M360.731,229.075l-225.1-225.1c-5.3-5.3-13.8-5.3-19.1,0s-5.3,13.8,0,19.1l215.5,215.5l-215.5,215.5
    		c-5.3,5.3-5.3,13.8,0,19.1c2.6,2.6,6.1,4,9.5,4c3.4,0,6.9-1.3,9.5-4l225.1-225.1C365.931,242.875,365.931,234.275,360.731,229.075z
    		"/></symbol><symbol id = "qq" viewBox = "0 0 256 256"><g id="Background_1_" style="enable-background:new    ;"><g id="Background"><g><path d="M249.422,30.679c-2.721-4.985-5.816-9.536-9.793-13.521     c-3.992-3.998-8.709-7.587-13.703-10.314c-8.381-4.576-18.788-6.856-29.002-6.856H59.075c-10.444,0-20.542,2.345-29.265,6.949     c-5.022,2.649-9.588,6.146-13.502,10.126c-3.932,3.998-7.491,8.488-10.046,13.572c-4.289,8.533-6.274,18.477-6.274,28.65v137.429     c0,10.327,1.671,20.679,6.296,29.135c2.681,4.9,6.191,9.86,10.087,13.794c3.934,3.971,8.583,7.226,13.503,9.956     c8.465,4.7,18.842,6.413,29.201,6.413h137.849c10.568,0,20.399-1.523,28.982-6.401c4.739-2.692,9.879-6.113,13.687-9.966     c3.923-3.969,7.2-8.851,9.886-13.799c4.566-8.415,6.533-18.874,6.533-29.132V59.285     C256.012,48.978,254.031,39.124,249.422,30.679z" style="fill-rule:evenodd;clip-rule:evenodd;fill:#FFFFFF;"/></g></g></g><g id="Shape_1_1_" style="enable-background:new    ;"><g id="Shape_1"><g><path d="M214.885,158.731c-0.119-12.758-4.868-19.68-10.316-28.706     c-2.455-3.77-5.289-6.295-7.742-10.064c-0.382-2.043,0.416-3.574-0.154-8.944c-0.547-8.051-3.371-11.171-3.966-12.157     c0.255-2.141-0.563-19.787-6.694-30.226c-18.701-34.813-54.123-36.083-58.458-36.106h-0.042     c-4.335,0.023-39.757,1.294-58.457,36.106c-6.132,10.438-6.95,28.085-6.695,30.226c-0.595,0.986-3.419,4.106-3.965,12.157     c-0.57,5.37,0.228,6.901-0.154,8.944c-2.454,3.77-5.289,6.295-7.743,10.064c-5.449,9.026-10.198,15.948-10.316,28.706     c-0.088,9.511,2.071,22.484,8.483,22.662c2.019-0.167,3.743-1.563,7.249-5.654c1.047-1.231,4.738-6.4,5.484-7.834     c0.72,1.979,2.424,15.78,14.338,22.969c-12.239,6-18.227,9.795-18.437,17.582c0.256,4.505,5.42,10.494,14.917,13.285     c11.962,3.483,25.877,3.561,37.459,0.649c6.848-1.721,8.909-3.445,17.858-8.572c8.95,5.127,11.01,6.852,17.858,8.572     c11.582,2.911,25.496,2.834,37.459-0.649c9.496-2.791,14.66-8.78,14.916-13.285c-0.209-7.787-6.197-11.582-18.436-17.582     c11.913-7.188,13.617-20.989,14.337-22.969c0.747,1.434,4.438,6.603,5.484,7.834c3.507,4.092,5.23,5.487,7.249,5.654     C212.813,181.216,214.973,168.242,214.885,158.731z" style="fill-rule:evenodd;clip-rule:evenodd;fill:#457DCA;"/></g></g></g></symbol><symbol id = "tt" viewBox="0 0 24 24"><path d="M9.028 20.837c-.714 0-.593-.271-.839-.949l-2.103-6.92L22.263 3.37"/><path d="M9.028 20.837c.552 0 .795-.252 1.105-.553l2.941-2.857-3.671-2.214"/><path d="M9.403 15.213l8.89 6.568c1.015.56 1.748.271 2-.942l3.62-17.053c.372-1.487-.564-2.159-1.534-1.72L1.125 10.263c-1.45.582-1.443 1.392-.264 1.753l5.455 1.7L18.94 5.753c.595-.36 1.143-.167.694.232"/> </symbol> <symbol id = "social_kakao" viewBox="0 0 256 256"><path fill="#FFE812" d="M256 236c0 11.046-8.954 20-20 20H20c-11.046 0-20-8.954-20-20V20C0 8.954 8.954 0 20 0h216c11.046 0 20 8.954 20 20v216z"/><path d="M128 36C70.562 36 24 72.713 24 118c0 29.279 19.466 54.97 48.748 69.477-1.593 5.494-10.237 35.344-10.581 37.689 0 0-.207 1.762.934 2.434s2.483.15 2.483.15c3.272-.457 37.943-24.811 43.944-29.04 5.995.849 12.168 1.29 18.472 1.29 57.438 0 104-36.712 104-82 0-45.287-46.562-82-104-82z"/><path fill="#FFE812" d="M70.5 146.625c-3.309 0-6-2.57-6-5.73V105.25h-9.362c-3.247 0-5.888-2.636-5.888-5.875s2.642-5.875 5.888-5.875h30.724c3.247 0 5.888 2.636 5.888 5.875s-2.642 5.875-5.888 5.875H76.5v35.645c0 3.16-2.691 5.73-6 5.73zM123.112 146.547c-2.502 0-4.416-1.016-4.993-2.65l-2.971-7.778-18.296-.001-2.973 7.783c-.575 1.631-2.488 2.646-4.99 2.646a9.155 9.155 0 0 1-3.814-.828c-1.654-.763-3.244-2.861-1.422-8.52l14.352-37.776c1.011-2.873 4.082-5.833 7.99-5.922 3.919.088 6.99 3.049 8.003 5.928l14.346 37.759c1.826 5.672.236 7.771-1.418 8.532a9.176 9.176 0 0 1-3.814.827c-.001 0 0 0 0 0zm-11.119-21.056L106 108.466l-5.993 17.025h11.986zM138 145.75c-3.171 0-5.75-2.468-5.75-5.5V99.5c0-3.309 2.748-6 6.125-6s6.125 2.691 6.125 6v35.25h12.75c3.171 0 5.75 2.468 5.75 5.5s-2.579 5.5-5.75 5.5H138zM171.334 146.547c-3.309 0-6-2.691-6-6V99.5c0-3.309 2.691-6 6-6s6 2.691 6 6v12.896l16.74-16.74c.861-.861 2.044-1.335 3.328-1.335 1.498 0 3.002.646 4.129 1.772 1.051 1.05 1.678 2.401 1.764 3.804.087 1.415-.384 2.712-1.324 3.653l-13.673 13.671 14.769 19.566a5.951 5.951 0 0 1 1.152 4.445 5.956 5.956 0 0 1-2.328 3.957 5.94 5.94 0 0 1-3.609 1.211 5.953 5.953 0 0 1-4.793-2.385l-14.071-18.644-2.082 2.082v13.091a6.01 6.01 0 0 1-6.002 6.003z"/></symbol></svg>
