<?xml version="1.0" standalone="no"?>
<!DOCTYPE svg PUBLIC "-//W3C//DTD SVG 20010904//EN"
 "http://www.w3.org/TR/2001/REC-SVG-20010904/DTD/svg10.dtd">
<svg version="1.0" xmlns="http://www.w3.org/2000/svg"
 width="16.000000pt" height="16.000000pt" viewBox="0 0 16.000000 16.000000"
 preserveAspectRatio="xMidYMid meet">
<metadata>
Created by potrace 1.11, written by Peter Selinger 2001-2013
</metadata>
<g transform="translate(0.000000,16.000000) scale(0.012500,-0.012500)"
fill="#000000" stroke="none">
<path d="M558 1269 c-93 -14 -318 -105 -318 -128 0 -5 6 -14 14 -21 18 -14 12
-34 -24 -80 -44 -57 -53 -80 -46 -120 3 -20 2 -50 -3 -67 -6 -22 -5 -39 5 -58
19 -36 18 -47 -8 -91 -44 -75 -20 -198 50 -256 16 -12 37 -44 46 -71 41 -110
135 -206 243 -247 113 -44 244 -22 346 55 25 19 48 35 50 35 4 0 -5 -54 -21
-120 -11 -45 0 -77 31 -91 27 -12 66 2 68 24 0 7 2 19 4 28 1 9 -6 36 -17 60
-35 77 -35 130 0 196 16 32 33 69 37 81 4 13 25 40 46 59 66 59 83 162 40 243
-16 32 -19 52 -15 126 8 140 6 149 -48 208 -11 12 -15 28 -12 46 5 24 -2 33
-68 83 -81 62 -143 93 -203 102 -70 10 -149 11 -197 4z m348 -190 c38 -36 47
-80 39 -192 -7 -118 0 -145 51 -198 24 -25 37 -48 39 -71 4 -46 -22 -98 -56
-110 -15 -5 -30 -16 -33 -24 -4 -11 -17 -14 -51 -11 -53 5 -63 -4 -66 -60 -3
-52 -15 -68 -67 -88 -23 -10 -43 -21 -43 -26 -1 -5 -3 -13 -4 -19 -1 -5 -3
-17 -4 -25 0 -8 -16 -24 -33 -36 -105 -66 -295 64 -332 226 -4 18 -26 47 -53
71 -43 38 -47 45 -47 88 -1 50 5 57 64 97 24 16 25 21 26 130 2 111 9 182 20
200 3 5 20 9 39 9 19 0 37 5 40 10 9 15 42 12 59 -5 9 -9 21 -35 27 -58 21
-78 59 -67 59 17 0 59 17 90 46 84 13 -2 26 -23 44 -73 14 -39 29 -76 33 -83
15 -23 34 5 46 69 16 80 47 114 98 106 20 -4 46 -16 59 -28z"/>
<path d="M790 723 c-56 -18 -100 -53 -100 -80 0 -41 36 -79 93 -97 52 -17 147
65 147 127 0 40 -82 70 -140 50z m50 -92 c14 -28 -13 -55 -41 -41 -24 13 -25
36 -1 49 24 15 30 14 42 -8z"/>
<path d="M350 671 c0 -34 41 -91 79 -110 63 -30 119 -12 147 47 20 42 14 47
-64 57 -60 7 -94 13 -134 21 -23 5 -28 2 -28 -15z m144 -37 c10 -25 7 -33 -13
-44 -28 -14 -55 13 -41 41 13 23 46 25 54 3z"/>
<path d="M607 505 c-9 -20 -17 -43 -17 -52 0 -15 2 -15 18 0 10 10 25 17 32
17 7 0 22 -7 32 -17 17 -15 18 -15 18 3 0 26 -37 84 -53 84 -7 0 -21 -16 -30
-35z"/>
</g>
</svg>
