<svg xmlns="http://www.w3.org/2000/svg" viewBox="0 0 247.79 31.22"><defs><style>.cls-1{fill:#396cf3;}.cls-2{fill:#91f2b8;stroke:#396cf3;stroke-miterlimit:10;stroke-width:2px;}</style></defs><title>libra_line</title><g id="Слой_2" data-name="Слой 2"><g id="Слой_1-2" data-name="Слой 1"><path class="cls-1" d="M0,14.92c20.65-.9,41.3-1.35,61.94-1.7,10.33-.21,20.65-.27,31-.4l31-.18,31,0c10.34.06,20.64.11,31,.26,20.64.25,41.3.64,62,1.42-20.65.9-41.29,1.36-61.94,1.7-10.32.21-20.65.27-31,.4l-31,.17-31,0c-10.33-.06-20.65-.11-31-.26C41.3,16.07,20.65,15.69,0,14.92Z"/><circle class="cls-2" cx="123.32" cy="15.61" r="14.61" transform="translate(93.13 136.19) rotate(-83.16)"/></g></g></svg>