<svg xmlns="http://www.w3.org/2000/svg" viewBox="0 0 42.3 31.06"><defs><style>.cls-1{fill:#3fe489;}</style></defs><title>brick_t1</title><g id="Слой_2" data-name="Слой 2"><g id="Слой_1-2" data-name="Слой 1"><path class="cls-1" d="M1.34,9.15,12.1,15.74a.85.85,0,0,1,.41.73V30.2a.85.85,0,0,1-1.28.74L.42,24.34A.85.85,0,0,1,0,23.58V9.82a.85.85,0,0,1,1.34-.67Z"/><path class="cls-1" d="M14.59,16.34V29.86a.85.85,0,0,0,1.31.72l26-16.36a.85.85,0,0,0,.4-.72V.85A.85.85,0,0,0,41,.12L15,15.63A.85.85,0,0,0,14.59,16.34Z"/></g></g></svg>