<?xml version="1.0" encoding="utf-8"?>
<!-- Generator: Adobe Illustrator 21.1.0, SVG Export Plug-In . SVG Version: 6.00 Build 0)  -->
<svg version="1.1" id="Слой_1" xmlns="http://www.w3.org/2000/svg" xmlns:xlink="http://www.w3.org/1999/xlink" x="0px" y="0px"
	 viewBox="0 0 117.1 149.3" style="enable-background:new 0 0 117.1 149.3;" xml:space="preserve">
<style type="text/css">
	.st0{fill:#356BF7;}
	.st1{fill:#91F2B8;}
</style>
<title>ball_1</title>
<g id="Слой_2">
	<g id="blochain">
		<g>
			<polygon class="st0" points="57.4,40.7 41.4,28.5 47.3,15 49.1,15.8 43.8,27.9 57.5,38.3 71.8,28.3 68.8,15.6 70.8,15.2 
				74.1,29.2 			"/>
		</g>
		<g>
			<polygon class="st0" points="1.7,66.2 1.4,64.2 18.8,61.1 21.8,43.7 11.7,39 12.6,37.2 24,42.6 20.5,62.8 			"/>
		</g>
		<g>
			<polygon class="st0" points="20.9,114.7 18.9,114.4 21.1,97.1 2.6,87.7 3.5,85.9 23.3,95.9 			"/>
		</g>
		<g>
			<path class="st0" d="M22.2,97.5c-0.4,0-0.8-0.2-0.9-0.6c-0.2-0.5,0.1-1.1,0.6-1.3l17.8-6.7c0.5-0.2,1.1,0.1,1.3,0.6
				c0.2,0.5-0.1,1.1-0.6,1.3l-17.8,6.7C22.4,97.5,22.3,97.5,22.2,97.5z"/>
		</g>
		<g>
			<polygon class="st0" points="115.5,66.2 95.2,62.8 92.4,42.8 104.5,37.2 105.3,39 94.6,44 96.9,61.1 115.8,64.2 			"/>
		</g>
		<g>
			<polygon class="st0" points="95.1,114.7 92.4,95.9 113.6,86.3 114.4,88.1 94.6,97.1 97,114.4 			"/>
		</g>
		<g>
			<polygon class="st0" points="70,128.8 68,128.3 71.8,113.7 57.8,103.6 43.8,113.7 48.5,128.1 46.6,128.7 41.4,113 57.9,101.1 
				74.1,112.9 			"/>
		</g>
		<g>
			<path class="st0" d="M67.7,86.9H47.3l-5.8-20.3L57.9,54l16.2,13.3L67.7,86.9z M48.8,84.9h17.4L71.8,68L57.8,56.5L43.8,67.3
				L48.8,84.9z"/>
		</g>
		<g>
			<path class="st0" d="M42.6,68c0,0-0.1,0-0.1,0l-14.3-1.8c-0.5-0.1-0.9-0.6-0.9-1.1c0.1-0.5,0.6-0.9,1.1-0.9L42.7,66
				c0.5,0.1,0.9,0.6,0.9,1.1C43.5,67.6,43.1,68,42.6,68z"/>
		</g>
		<g>
			<path class="st0" d="M72.9,68.6c-0.5,0-0.9-0.4-1-0.9c-0.1-0.5,0.3-1.1,0.8-1.1L89,64.2c0.6-0.1,1.1,0.3,1.1,0.8
				c0.1,0.5-0.3,1.1-0.8,1.1l-16.2,2.4C73,68.6,73,68.6,72.9,68.6z"/>
		</g>
		<g>
			<path class="st0" d="M57.9,56.3c-0.6,0-1-0.4-1-1v-9.4c0-0.6,0.4-1,1-1s1,0.4,1,1v9.4C58.9,55.8,58.4,56.3,57.9,56.3z"/>
		</g>
		<g>
			<path class="st0" d="M22.9,44.2c-0.3,0-0.6-0.2-0.8-0.5c-0.3-0.5-0.2-1.1,0.3-1.4L35,34.2c0.5-0.3,1.1-0.2,1.4,0.3
				c0.3,0.5,0.2,1.1-0.3,1.4L23.4,44C23.3,44.1,23.1,44.2,22.9,44.2z"/>
		</g>
		<g>
			<path class="st0" d="M93.5,44.4c-0.2,0-0.4-0.1-0.6-0.2l-12.4-8.4c-0.5-0.3-0.6-0.9-0.3-1.4c0.3-0.5,0.9-0.6,1.4-0.3L94,42.6
				c0.5,0.3,0.6,0.9,0.3,1.4C94.1,44.3,93.8,44.4,93.5,44.4z"/>
		</g>
		<g>
			<path class="st0" d="M57.9,103.3c-0.6,0-1-0.4-1-1V91.8c0-0.6,0.4-1,1-1s1,0.4,1,1v10.5C58.9,102.9,58.4,103.3,57.9,103.3z"/>
		</g>
		<g>
			<path class="st0" d="M93.5,97.5c-0.1,0-0.2,0-0.4-0.1l-17.3-6.7c-0.5-0.2-0.8-0.8-0.6-1.3s0.8-0.8,1.3-0.6l17.3,6.7
				c0.5,0.2,0.8,0.8,0.6,1.3C94.3,97.2,93.9,97.5,93.5,97.5z"/>
		</g>
		<g>
			<path class="st0" d="M22.9,118c-0.2,0-0.4-0.1-0.6-0.2C10,108.1,2.3,94.2,0.5,78.7c-1.8-15.5,2.6-30.8,12.3-43
				c14-17.6,37.1-25.7,59-20.6c0.5,0.1,0.9,0.7,0.7,1.2c-0.1,0.5-0.7,0.9-1.2,0.7c-21.1-4.9-43.5,2.9-57,19.9
				C5,48.7,0.8,63.4,2.5,78.4c1.7,15,9.2,28.4,21,37.8c0.4,0.3,0.5,1,0.2,1.4C23.5,117.9,23.2,118,22.9,118z"/>
		</g>
		<g>
			<path class="st0" d="M58.6,130.4c-7.6,0-15.2-1.5-22.5-4.5c-0.5-0.2-0.8-0.8-0.5-1.3c0.2-0.5,0.8-0.8,1.3-0.5
				c19.5,8.1,41.8,4.7,58-8.9c23.9-20,27-55.7,7-79.6c-0.4-0.4-0.3-1.1,0.1-1.4c0.4-0.4,1.1-0.3,1.4,0.1c10,12,14.8,27.1,13.5,42.7
				c-1.4,15.6-8.7,29.7-20.7,39.7C85.4,125.7,72.1,130.4,58.6,130.4z"/>
		</g>
		<g>
			<path class="st1" d="M80.1,12.7c-0.2,0-0.4-0.1-0.6-0.2c-0.5-0.3-0.6-0.9-0.3-1.4l5.3-8c0.3-0.5,0.9-0.6,1.4-0.3
				c0.5,0.3,0.6,0.9,0.3,1.4l-5.3,8C80.8,12.6,80.5,12.7,80.1,12.7z"/>
		</g>
		<g>
			<path class="st1" d="M102,24.4c-0.2,0-0.4-0.1-0.6-0.2c-0.5-0.3-0.6-0.9-0.3-1.4l5.4-8c0.3-0.5,0.9-0.6,1.4-0.3
				c0.5,0.3,0.6,0.9,0.3,1.4l-5.4,8C102.7,24.3,102.4,24.4,102,24.4z"/>
		</g>
		<g>
			<path class="st1" d="M84.2,31c-0.2,0-0.4-0.1-0.6-0.2c-0.5-0.3-0.6-0.9-0.3-1.4l19.6-29c0.3-0.5,0.9-0.6,1.4-0.3
				c0.5,0.3,0.6,0.9,0.3,1.4l-19.6,29C84.9,30.8,84.6,31,84.2,31z"/>
		</g>
		<g>
			<path class="st1" d="M6.7,131.2c-0.2,0-0.4-0.1-0.5-0.2c-0.5-0.3-0.6-0.9-0.3-1.4l5.3-8c0.3-0.5,0.9-0.6,1.4-0.3
				c0.5,0.3,0.6,0.9,0.3,1.4l-5.3,8C7.4,131.1,7,131.2,6.7,131.2z"/>
		</g>
		<g>
			<path class="st1" d="M28.6,142.9c-0.2,0-0.4-0.1-0.6-0.2c-0.5-0.3-0.6-0.9-0.3-1.4l5.3-8c0.3-0.5,0.9-0.6,1.4-0.3
				c0.5,0.3,0.6,0.9,0.3,1.4l-5.3,8C29.2,142.7,28.9,142.9,28.6,142.9z"/>
		</g>
		<g>
			<path class="st1" d="M10.8,149.3c-0.2,0-0.4-0.1-0.6-0.2c-0.5-0.3-0.6-0.9-0.3-1.4l19.6-29c0.3-0.5,0.9-0.6,1.4-0.3
				c0.5,0.3,0.6,0.9,0.3,1.4l-19.6,29C11.4,149.1,11.1,149.3,10.8,149.3z"/>
		</g>
	</g>
</g>
</svg>
