<?xml version="1.0" encoding="utf-8"?>
<!-- Generator: Adobe Illustrator 21.1.0, SVG Export Plug-In . SVG Version: 6.00 Build 0)  -->
<svg version="1.1" id="Слой_1" xmlns="http://www.w3.org/2000/svg" xmlns:xlink="http://www.w3.org/1999/xlink" x="0px" y="0px"
	 viewBox="0 0 127.6 147.2" style="enable-background:new 0 0 127.6 147.2;" xml:space="preserve">
<style type="text/css">
	.st0{fill:none;stroke:#356BF7;stroke-width:1.39;stroke-miterlimit:10;}
	.st1{fill:none;stroke:#D9E7FF;stroke-width:1.37;stroke-miterlimit:10;}
	.st2{fill:#FFFFFF;stroke:#356BF7;stroke-width:1.37;stroke-miterlimit:10;}
	.st3{fill:none;stroke:#356BF7;stroke-width:1.37;stroke-miterlimit:10;}
	.st4{fill:#FFFFFF;stroke:#356BF7;stroke-miterlimit:10;}
	.st5{fill:#91F2B8;stroke:#356BF7;stroke-miterlimit:10;}
	.st6{fill:none;stroke:#356BF7;stroke-miterlimit:10;}
</style>
<title>koleso</title>
<g id="Слой_2">
	<g id="blochain">
		<circle class="st0" cx="63.8" cy="61.2" r="53.3"/>
		<line class="st1" x1="63.8" y1="7.9" x2="63.8" y2="49.9"/>
		<line class="st1" x1="102.1" y1="24.2" x2="72.9" y2="53.3"/>
		<line class="st1" x1="75.2" y1="61.2" x2="117.1" y2="61.2"/>
		<line class="st1" x1="52.4" y1="61.2" x2="10.4" y2="61.2"/>
		<line class="st1" x1="54.8" y1="68.3" x2="25.6" y2="98.5"/>
		<line class="st1" x1="63.8" y1="72.6" x2="63.8" y2="114.6"/>
		<line class="st1" x1="56.1" y1="52.8" x2="26.5" y2="23.2"/>
		<line class="st1" x1="72.2" y1="68.9" x2="102.7" y2="97.7"/>
		<circle class="st2" cx="63.8" cy="61.2" r="11.4"/>
		<polyline class="st3" points="72.9,68 100.2,144.3 27.5,144.3 54.8,68.3 		"/>
		<path class="st4" d="M9.4,137.4H118c1.2,0,2.2,1,2.2,2.2v5c0,1.2-1,2.2-2.2,2.2H9.4c-1.2,0-2.2-1-2.2-2.2v-5
			C7.2,138.3,8.2,137.4,9.4,137.4z"/>
		<path class="st5" d="M34.9,15.4v6c0,4.9-3.8,8.8-8.7,8.9l0,0c-4.9,0-8.9-3.9-8.9-8.8c0,0,0-0.1,0-0.1v-6"/>
		<line class="st6" x1="15.6" y1="15.4" x2="36.5" y2="15.4"/>
		<path class="st5" d="M19.3,53.8v6c0,4.9-4,8.8-8.8,8.8l0,0c-4.9,0-8.8-4-8.8-8.9v-6"/>
		<line class="st6" x1="0" y1="53.8" x2="20.9" y2="53.8"/>
		<path class="st5" d="M34.9,91.9v6c0,4.8-3.9,8.7-8.7,8.8l0,0c-4.9,0-8.8-4-8.8-8.8v-6"/>
		<line class="st6" x1="15.6" y1="91.9" x2="36.5" y2="91.9"/>
		<path class="st5" d="M72.6,107.2v6c0,4.9-4,8.8-8.8,8.8l0,0c-4.9,0-8.8-4-8.8-8.8v-6"/>
		<line class="st6" x1="53.3" y1="107.2" x2="74.2" y2="107.2"/>
		<path class="st5" d="M110.8,89.6v6c0,4.9-4,8.8-8.8,8.8l0,0c-4.9,0-8.8-4-8.8-8.8v-6"/>
		<line class="st6" x1="91.5" y1="89.6" x2="112.4" y2="89.6"/>
		<path class="st5" d="M125.9,53.3v6c0,4.9-4,8.8-8.8,8.8l0,0c-4.9,0-8.8-4-8.8-8.8v-6"/>
		<line class="st6" x1="106.7" y1="53.3" x2="127.6" y2="53.3"/>
		<path class="st5" d="M110.8,16.9v6c0,4.9-4,8.8-8.8,8.8l0,0c-4.9,0-8.8-4-8.8-8.8v-6"/>
		<line class="st6" x1="91.5" y1="16.9" x2="112.4" y2="16.9"/>
		<path class="st5" d="M72.6,0.5v6c0,4.9-4,8.8-8.8,8.8l0,0c-4.9,0-8.8-4-8.8-8.8v-6"/>
		<line class="st6" x1="53.3" y1="0.5" x2="74.2" y2="0.5"/>
	</g>
</g>
</svg>
