<?xml version="1.0" encoding="utf-8"?>
<!-- Generator: Adobe Illustrator 21.1.0, SVG Export Plug-In . SVG Version: 6.00 Build 0)  -->
<svg version="1.1" id="Слой_1" xmlns="http://www.w3.org/2000/svg" xmlns:xlink="http://www.w3.org/1999/xlink" x="0px" y="0px"
	 viewBox="0 0 133.8 111.6" style="enable-background:new 0 0 133.8 111.6;" xml:space="preserve">
<style type="text/css">
	.st0{fill:#FFFFFF;stroke:#356BF7;stroke-width:1.37;stroke-miterlimit:10;}
	.st1{fill:none;stroke:#356BF7;stroke-width:0.79;stroke-linecap:round;stroke-miterlimit:10;}
	.st2{fill:#91F2B8;stroke:#356BF7;stroke-miterlimit:10;}
	.st3{fill:none;stroke:#356BF7;stroke-width:0.79;stroke-miterlimit:10;}
	.st4{fill:none;stroke:#356BF7;stroke-linecap:round;stroke-miterlimit:10;}
</style>
<title>Ресурс 56</title>
<g id="Слой_2">
	<g id="blochain">
		<circle class="st0" cx="76.1" cy="28.2" r="27.5"/>
		<path class="st1" d="M16.6,86.2c0,0-12.3,13.8,0,22.6c11,7.8,22.4-5.9,24.8-9.1c0.4-0.5,0.7-0.9,1.1-1.3l24.7-24.9
			c4-3.6,10-3.6,14,0c7.5,6.2,0,14.8,0,14.8c-4.4,5.1-9.2,10-14.2,14.6"/>
		<path class="st2" d="M65.6,4.5l34,35.6c0.5,0.5,0.5,1.3,0,1.8c-1,1.7-2.1,3.3-3.3,4.8c-1.3,1.4-2.9,2.7-4.6,3.6
			c-0.4,0.4-1.2,0.4-1.6,0l0,0L53.8,15.5c-0.8-0.8-0.9-2-0.2-2.8c1.1-1.7,2.5-3.3,3.9-4.7c1.8-1.4,3.7-2.6,5.6-3.8
			C63.9,3.7,65,3.8,65.6,4.5z"/>
		<polyline class="st3" points="50,39.5 11.3,80.3 22.6,92.7 65.2,53.4 		"/>
		<line class="st3" x1="35.2" y1="55.1" x2="48.6" y2="68.8"/>
		<circle class="st2" cx="7.9" cy="46.5" r="7.4"/>
		<circle class="st2" cx="23.3" cy="30.9" r="7.4"/>
		<polyline class="st4" points="11.8,40.3 6.8,14.5 21.3,2.1 27.1,24.6 		"/>
		<circle class="st2" cx="127.3" cy="39.9" r="5.2"/>
		<polyline class="st4" points="129.9,35.3 123.3,18.6 133.3,19.2 		"/>
		<ellipse transform="matrix(0.4831 -0.8755 0.8755 0.4831 -29.7259 136.8345)" class="st2" cx="101" cy="93.6" rx="7.5" ry="7.5"/>
		<polyline class="st4" points="107.4,89.3 110.8,64.2 122.9,71.8 		"/>
	</g>
</g>
</svg>
