<svg xmlns="http://www.w3.org/2000/svg" viewBox="0 0 55.5 55.5"><defs><style>.cls-1,.cls-2{fill:#41e583;}.cls-1,.cls-2,.cls-3{stroke:#fff;stroke-miterlimit:10;}.cls-1{stroke-width:2px;}.cls-3{fill:none;stroke-width:0.75px;stroke-dasharray:2.97 2.97;}.cls-4{fill:#fff;}</style></defs><title>sps_coin</title><g id="Слой_2" data-name="Слой 2"><g id="Слой_20" data-name="Слой 20"><circle class="cls-1" cx="27.75" cy="27.75" r="26.75"/><circle class="cls-2" cx="27.75" cy="27.75" r="17.97"/><circle class="cls-3" cx="27.75" cy="27.75" r="22.66"/><path class="cls-4" d="M21.4,29.17a.91.91,0,0,0-.33-.73,3.66,3.66,0,0,0-.83-.51l-1.08-.48a5.47,5.47,0,0,1-1.08-.6,3.08,3.08,0,0,1-.83-.89,2.55,2.55,0,0,1-.33-1.36,3,3,0,0,1,.24-1.24,2.33,2.33,0,0,1,.68-.87,2.94,2.94,0,0,1,1-.52,5,5,0,0,1,1.34-.17,8.45,8.45,0,0,1,1.61.15,4.1,4.1,0,0,1,1.25.43L22.49,24a3.38,3.38,0,0,0-.92-.36,5.25,5.25,0,0,0-1.33-.16,1.7,1.7,0,0,0-1,.27.84.84,0,0,0-.36.71.88.88,0,0,0,.33.7,3.83,3.83,0,0,0,.83.52l1.08.49a5.78,5.78,0,0,1,1.08.61,3.12,3.12,0,0,1,.83.88A2.43,2.43,0,0,1,23.32,29a3.23,3.23,0,0,1-.26,1.35,2.56,2.56,0,0,1-.73.95,3.08,3.08,0,0,1-1.13.56,5.55,5.55,0,0,1-1.46.18,7.82,7.82,0,0,1-1.85-.2,5.63,5.63,0,0,1-1.18-.39l.62-1.64.4.18a5.16,5.16,0,0,0,.55.18,6.27,6.27,0,0,0,.65.14,4.41,4.41,0,0,0,.71.06A2.47,2.47,0,0,0,20.95,30,1,1,0,0,0,21.4,29.17Z"/><path class="cls-4" d="M24.59,22.1q.59-.11,1.29-.17t1.41-.06a9.11,9.11,0,0,1,1.46.12,3.65,3.65,0,0,1,1.32.48,2.77,2.77,0,0,1,1,1,3.28,3.28,0,0,1,.37,1.66,3.43,3.43,0,0,1-.32,1.56,3,3,0,0,1-.85,1A3.45,3.45,0,0,1,29,28.3a5.4,5.4,0,0,1-1.41.18h-.55l-.33,0-.23,0V31.8H24.59Zm2.86,1.41-.53,0-.41,0v3.18l.17,0,.24,0h.42a4,4,0,0,0,.75-.07,1.85,1.85,0,0,0,.67-.26,1.34,1.34,0,0,0,.47-.52,1.91,1.91,0,0,0,.17-.88,1.55,1.55,0,0,0-.17-.76,1.37,1.37,0,0,0-.44-.48,1.71,1.71,0,0,0-.62-.25A3.62,3.62,0,0,0,27.45,23.52Z"/><path class="cls-4" d="M36.83,29.17a.91.91,0,0,0-.33-.73,3.66,3.66,0,0,0-.83-.51l-1.08-.48a5.47,5.47,0,0,1-1.08-.6,3.08,3.08,0,0,1-.83-.89,2.55,2.55,0,0,1-.33-1.36,3,3,0,0,1,.24-1.24,2.33,2.33,0,0,1,.68-.87,2.94,2.94,0,0,1,1-.52,5,5,0,0,1,1.34-.17,8.45,8.45,0,0,1,1.61.15,4.1,4.1,0,0,1,1.25.43L37.92,24a3.38,3.38,0,0,0-.92-.36,5.25,5.25,0,0,0-1.33-.16,1.7,1.7,0,0,0-1,.27.84.84,0,0,0-.36.71.88.88,0,0,0,.33.7,3.83,3.83,0,0,0,.83.52l1.08.49a5.78,5.78,0,0,1,1.08.61,3.12,3.12,0,0,1,.83.88A2.43,2.43,0,0,1,38.75,29a3.23,3.23,0,0,1-.26,1.35,2.56,2.56,0,0,1-.73.95,3.08,3.08,0,0,1-1.13.56,5.55,5.55,0,0,1-1.46.18,7.82,7.82,0,0,1-1.85-.2,5.63,5.63,0,0,1-1.18-.39l.62-1.64.4.18a5.16,5.16,0,0,0,.55.18,6.27,6.27,0,0,0,.65.14,4.41,4.41,0,0,0,.71.06A2.47,2.47,0,0,0,36.37,30,1,1,0,0,0,36.83,29.17Z"/></g></g></svg>